<svg width="34" height="34" viewBox="0 0 34 34" fill="none" xmlns="http://www.w3.org/2000/svg">
<path d="M29.7559 26.2122V28.338C29.7559 29.1204 29.121 29.7553 28.3387 29.7553H25.5042C24.7218 29.7553 24.0869 29.1204 24.0869 28.338V26.2122" stroke="white" stroke-width="1.5" stroke-linecap="round" stroke-linejoin="round"/>
<path d="M9.91415 26.2122V28.338C9.91415 29.1204 9.27921 29.7553 8.49689 29.7553H5.66237C4.88005 29.7553 4.24512 29.1204 4.24512 28.338V26.2122" stroke="white" stroke-width="1.5" stroke-linecap="round" stroke-linejoin="round"/>
<path fill-rule="evenodd" clip-rule="evenodd" d="M4.24512 26.2122V19.4703C4.24512 18.3422 4.69297 17.2608 5.49089 16.4643L7.07963 14.8741H26.9212L28.51 16.4629C29.3079 17.2608 29.7557 18.3422 29.7557 19.4703V26.2122H4.24512Z" stroke="white" stroke-width="1.5" stroke-linecap="round" stroke-linejoin="round"/>
<path d="M29.7557 20.5432L25.5039 20.8975" stroke="white" stroke-width="1.5" stroke-linecap="round" stroke-linejoin="round"/>
<path d="M8.49689 20.8975L4.24512 20.5432" stroke="white" stroke-width="1.5" stroke-linecap="round" stroke-linejoin="round"/>
<path d="M11.3311 26.2122L12.7483 21.9604H21.2519L22.6691 26.2122" stroke="white" stroke-width="1.5" stroke-linecap="round" stroke-linejoin="round"/>
<path d="M29.7554 13.4569L26.9209 14.1655" stroke="white" stroke-width="1.5" stroke-linecap="round" stroke-linejoin="round"/>
<path d="M7.07963 14.1655L4.24512 13.4569" stroke="white" stroke-width="1.5" stroke-linecap="round" stroke-linejoin="round"/>
<path d="M7.08008 14.8741V14.157L8.26491 9.71107C8.67733 8.15917 10.0832 7.07922 11.6876 7.07922H22.4361C24.0758 7.07922 25.5016 8.20453 25.8828 9.80036L26.9217 14.157V14.8741" stroke="white" stroke-width="1.5" stroke-linecap="round" stroke-linejoin="round"/>
</svg>
