<svg width="20" height="20" viewBox="0 0 20 20" fill="none" xmlns="http://www.w3.org/2000/svg">
<path d="M17.5041 17.5032V3.56986C17.5029 3.21895 17.3301 2.89083 17.0414 2.69138C16.7527 2.49192 16.3846 2.44638 16.056 2.56944L10.6963 4.57611C10.2773 4.73316 10 5.13407 10.001 5.58153V17.5032" stroke="#B3966D" stroke-width="1.5" stroke-linecap="round" stroke-linejoin="round"/>
<path fill-rule="evenodd" clip-rule="evenodd" d="M5.31155 4.37268H7.18733C7.70531 4.37268 8.12522 4.79259 8.12522 5.31057V7.18635H4.37366V5.31057C4.37366 4.79259 4.79357 4.37268 5.31155 4.37268V4.37268Z" stroke="#B3966D" stroke-width="1.5" stroke-linecap="round" stroke-linejoin="round"/>
<path d="M6.24948 2.49695V4.37273" stroke="#B3966D" stroke-width="1.5" stroke-linecap="round" stroke-linejoin="round"/>
<path d="M2.49792 17.5032V8.12429C2.49792 7.60631 2.91783 7.1864 3.43582 7.1864H9.06316C9.58114 7.1864 10.0011 7.60631 10.0011 8.12429V17.5032" stroke="#B3966D" stroke-width="1.5" stroke-linecap="round" stroke-linejoin="round"/>
<path d="M4.84302 12.8137H7.65669" stroke="#B3966D" stroke-width="1.5" stroke-linecap="round" stroke-linejoin="round"/>
<path d="M4.84302 12.8137H7.65669" stroke="#B3966D" stroke-width="1.5" stroke-linecap="round" stroke-linejoin="round"/>
<path d="M4.84302 9.99997H7.65669" stroke="#B3966D" stroke-width="1.5" stroke-linecap="round" stroke-linejoin="round"/>
<path d="M6.24948 16.0967V17.5031" stroke="#B3966D" stroke-width="1.5" stroke-linecap="round" stroke-linejoin="round"/>
<path d="M18.3378 17.5031H1.66418" stroke="#B3966D" stroke-width="1.5" stroke-linecap="round" stroke-linejoin="round"/>
<path d="M12.502 7.54651V14.1684" stroke="#B3966D" stroke-width="1.5" stroke-linecap="round" stroke-linejoin="round"/>
<path d="M15.003 7.54651V14.1684" stroke="#B3966D" stroke-width="1.5" stroke-linecap="round" stroke-linejoin="round"/>
</svg>
