<svg width="18" height="14" viewBox="0 0 18 14" fill="none" xmlns="http://www.w3.org/2000/svg">
<path fill-rule="evenodd" clip-rule="evenodd" d="M1.50098 2.66663V2.66663C1.50098 3.16663 1.75098 3.58329 2.16764 3.91663L7.16764 7.33329C8.33431 8.08329 9.75098 8.08329 10.9176 7.33329L15.9176 3.99996C16.251 3.58329 16.501 3.16663 16.501 2.66663V2.66663C16.501 1.83329 15.8343 1.16663 15.001 1.16663H3.00098C2.16764 1.16663 1.50098 1.83329 1.50098 2.66663Z" stroke="#B3966D" stroke-width="1.5" stroke-linecap="round" stroke-linejoin="round"/>
<path d="M1.50098 2.83325V11.1666C1.50098 12.0833 2.25098 12.8333 3.16764 12.8333H14.8343C15.751 12.8333 16.501 12.0833 16.501 11.1666V2.83325" stroke="#B3966D" stroke-width="1.5" stroke-linecap="round" stroke-linejoin="round"/>
<path d="M1.99097 12.3433L7.0693 7.26501" stroke="#B3966D" stroke-width="1.5" stroke-linecap="round" stroke-linejoin="round"/>
<path d="M10.9677 7.29993L16.011 12.3433" stroke="#B3966D" stroke-width="1.5" stroke-linecap="round" stroke-linejoin="round"/>
</svg>
