<svg width="61" height="74" viewBox="0 0 61 74" fill="none" xmlns="http://www.w3.org/2000/svg">
<path d="M37.5999 26.5741C35.5686 33.4058 37.0324 31.9981 39.6394 26.8763C40.7167 23.3133 35.807 19.1618 39.6147 16.0123C40.1904 15.0341 42.2382 14.8591 41.9915 16.3146C41.4816 17.1894 40.248 17.7064 40.2069 18.8755C40.322 22.0806 43.2826 25.1902 41.1937 28.3078C40.174 30.0575 38.1755 32.8252 41.6296 30.2961C45.7333 26.3355 46.2268 20.0923 49.0229 15.3045C48.6528 12.8947 43.628 10.8905 45.3468 8.35351C47.0409 7.5423 48.2334 11.9085 49.9276 12.8629C53.8092 10.0078 50.092 4.89392 46.8682 2.41255C48.3157 -3.53637 56.0133 9.26812 53.6119 12.163C53.5708 13.1731 51.8848 14.7319 52.4276 15.4079C54.4096 14.9705 57.0001 14.9625 57.9541 12.8709C58.3077 8.38532 61.6055 8.82274 60.0512 13.1492C56.5149 19.798 51.1529 13.1572 48.6117 23.0747C47.9785 25.1425 46.2432 27.4489 45.7991 29.2304C48.3157 29.9462 50.7993 24.7926 52.6332 27.266C50.2647 31.2664 44.2613 30.3041 40.8977 33.2308C38.9075 33.4296 34.9847 40.1579 38.8252 37.7561C42.2053 34.1056 48.0772 35.1952 52.4934 36.1257C54.903 36.8017 46.786 41.7008 45.8649 42.2973C42.7234 44.8582 37.4601 41.0566 36.8679 42.7188C38.6032 47.0374 33.6524 49.6221 32.5421 53.535C32.6655 55.8653 29.7213 56.756 28.1423 55.2211C27.542 53.9088 27.3199 52.4932 26.3989 51.3082C25.4942 48.8427 21.8839 46.8147 23.1998 44.0868C24.6472 39.8637 17.994 44.8503 14.9018 42.52C12.0316 41.1044 9.58914 38.7502 7.19597 36.7302C7.48381 35.4736 9.85231 35.7201 10.9461 35.4418C14.1699 35.06 17.9364 34.8691 20.6092 36.9687C21.1438 37.3664 22.5007 39.1956 22.9613 38.0424C22.9859 34.4158 18.6272 33.024 16.0367 31.2266C13.2981 30.7653 9.13682 29.7473 8.08416 26.9876C8.93945 24.204 17.5088 33.6921 13.808 26.9638C12.0645 23.8859 11.6287 19.7105 9.17794 17.1814C7.13018 16.577 4.81103 16.6486 3.03466 15.384C1.30763 14.4138 -0.805917 10.2225 1.63659 9.30788C4.63011 11.8211 0.707285 14.3104 8.60227 15.217C8.14173 13.1572 6.30779 9.82483 7.66474 7.12078C8.59404 4.87005 11.3491 -0.243785 14.2686 1.25935C15.2308 3.3033 11.6616 4.2179 10.8556 5.85624C9.08748 7.79679 9.52335 10.5486 10.5925 12.7198C11.3079 12.8391 11.8261 11.0655 12.6073 10.652C13.3475 9.24426 17.517 8.50462 15.7571 10.7951C14.1123 11.4473 13.3804 13.1333 13.035 14.716C11.5547 16.7679 18.0187 31.5765 19.976 29.9859C15.8064 25.1107 23.3149 20.649 19.3263 16.8951C18.8246 16.5691 18.8575 15.6704 19.4167 15.4318C22.6241 15.2488 23.3313 19.8139 21.9991 22.0885C19.8526 25.4288 21.1355 28.8248 23.7096 31.5527C24.4827 29.3099 21.8346 23.1463 25.6505 22.2953C27.0239 22.6532 25.9383 23.8541 25.9219 24.6892C25.486 28.8407 25.7163 33.5648 28.422 36.4597C29.5404 36.0462 32.1474 37.1994 32.3037 35.6644C32.2872 35.2429 32.575 34.718 33.052 34.7339C34.6228 33.5251 34.2198 30.7971 34.8449 29.0316C35.5686 27.7432 35.7001 26.2798 35.2643 24.8562C35.9798 22.6055 38.0522 25.0789 37.5999 26.5741Z" fill="#AA8852"/>
<path d="M42.4357 61.3927C43.036 64.5819 39.4586 65.9418 37.4684 67.7313C35.4371 69.6321 34.0144 72.3998 31.1113 73.4098C30.8481 67.9938 19.1044 67.0712 19.7376 60.1361C25.7904 48.1587 21.0123 45.3354 28.1918 56.9151C30.4452 57.6786 33.5703 57.3207 33.4387 54.4496C34.3927 52.8351 35.5276 49.4153 36.9256 48.9302C37.9947 53.3601 40.8484 57.2332 42.4357 61.3927Z" fill="#AA8852"/>
</svg>
