<svg width="314" height="314" viewBox="0 0 314 314" fill="none" xmlns="http://www.w3.org/2000/svg">
<g clip-path="url(#clip0_107_51639)">
<path d="M297.403 269.543C297.403 269.513 296.987 268.948 296.987 268.919C296.946 268.262 296.763 267.623 296.451 267.044C296.275 266.702 296.044 266.39 295.767 266.122C295.114 263.956 294.309 261.838 293.357 259.786C293.179 259.191 292.97 258.596 292.792 257.971C292.666 257.605 292.496 257.255 292.286 256.93L291.75 254.014C291.546 250.806 290.675 247.675 289.192 244.822C289.041 244.563 288.872 244.314 288.686 244.078C288.478 243.126 288.24 242.145 287.942 241.193C287.258 239.051 285.354 238.396 283.688 238.813C283.509 238.247 283.331 237.712 283.182 237.147C282.96 236.355 282.457 235.67 281.767 235.222C281.077 234.773 280.248 234.59 279.433 234.707C278.626 234.828 277.883 235.216 277.321 235.808C276.637 234.083 275.953 232.357 275.298 230.602C274.644 228.847 273.424 228.103 271.877 228.252L271.609 227.419C270.895 225.069 270.032 222.6 268.009 221.053C267.496 220.651 266.88 220.404 266.231 220.341C265.583 220.278 264.93 220.401 264.35 220.696C264.231 220.13 264.141 219.565 264.022 219C263.463 216.31 262.737 213.657 261.85 211.057C261.229 201.609 259.471 192.269 256.614 183.242C255.811 180.743 251.914 180.475 251.259 183.242C249.206 191.601 249.712 200.526 250.545 209.153C250.486 208.945 250.396 208.707 250.337 208.469C250.099 207.725 249.444 206.862 248.611 206.743L247.957 206.684C247.739 206.204 247.387 205.797 246.944 205.512C246.501 205.227 245.985 205.076 245.458 205.077C244.029 205.077 242.542 206.357 242.661 207.874C242.75 208.885 242.81 209.897 242.899 210.908C242.869 211.057 242.81 211.235 242.78 211.414C242.155 214.27 241.887 217.245 241.679 220.19C241.144 219.268 240.608 218.345 240.013 217.453C239.663 216.952 239.178 216.56 238.615 216.323L238.139 214.597C238.049 214.002 237.99 213.407 237.93 212.782C237.902 212.738 237.892 212.685 237.901 212.634C238.377 211.92 238.407 210.819 238.347 209.956C238.287 209.094 238.169 208.023 238.079 207.041C238.196 206.722 238.286 206.393 238.347 206.059C239.567 206.119 240.787 205.434 241.322 203.917C242.75 199.961 242.78 195.617 241.887 191.542C241.352 189.162 238.466 188.864 236.859 190.233L236.294 190.709C236.283 190.697 236.275 190.683 236.27 190.667C236.265 190.652 236.263 190.636 236.264 190.62C236.136 190.331 235.947 190.073 235.711 189.863C235.475 189.652 235.197 189.495 234.896 189.4L235.074 189.132C235.967 187.972 235.372 186.098 234.301 185.324C233.715 184.936 233.02 184.746 232.318 184.784C231.616 184.821 230.945 185.084 230.403 185.532L230.136 185.77C229.473 185.808 228.844 186.07 228.351 186.514C226.055 188.397 224.033 190.59 222.341 193.029C220.913 194.606 219.514 196.242 218.205 197.908C217.982 198.214 217.793 198.543 217.64 198.89L215.409 200.883C214.745 200.938 214.118 201.21 213.624 201.656C208.388 206.327 203.3 211.206 198.421 216.263C197.505 217.114 196.641 218.018 195.832 218.97C193.72 221.201 191.638 223.462 189.585 225.783C189.147 226.241 188.888 226.842 188.855 227.475C188.822 228.108 189.018 228.732 189.406 229.234C188.662 230.305 188.99 231.435 189.733 232.238C189.561 232.672 189.489 233.141 189.525 233.607C189.555 234.053 189.555 234.529 189.585 234.975C188.964 235.582 188.593 236.399 188.543 237.266C188.04 244.242 188.602 251.253 190.209 258.06C189.49 259.875 189.324 261.863 189.733 263.772C189.732 264.232 189.856 264.685 190.09 265.081V265.14C188.246 266.211 188.067 269.603 190.715 270.614C191.251 270.822 191.281 270.912 191.786 270.882C192.292 270.852 191.519 269.454 191.995 269.394C194.761 269.454 197.647 270.257 199.075 268.324C200.384 267.491 201.574 265.914 202.675 264.843C203.776 263.772 205.353 262.523 206.126 260.976C207.042 260.179 207.916 259.335 208.745 258.447L209.31 258.001C209.936 257.523 210.523 256.996 211.065 256.424C210.976 257.614 210.887 258.804 210.857 259.994C210.837 260.335 210.878 260.678 210.976 261.005C210.925 261.078 210.884 261.158 210.857 261.243C210.099 263.164 209.745 265.219 209.816 267.282C209.845 267.699 209.726 269.127 209.935 269.454C210.143 269.781 241.352 269.573 241.382 269.513C241.411 269.454 294.041 269.543 297.403 269.543ZM197.112 246.25C197.075 246.374 197.025 246.494 196.963 246.607C196.988 246.44 196.998 246.27 196.993 246.101L197.112 246.25Z" fill="#C4B096"/>
<path d="M229.331 184.938C231.92 184.938 231.92 180.951 229.331 180.951C226.743 180.951 226.773 184.938 229.331 184.938Z" fill="#5E433F"/>
<path d="M227.011 182.409C226.923 182.698 226.893 183.001 226.922 183.301C226.92 183.737 227.035 184.166 227.254 184.543C227.474 184.92 227.791 185.231 228.172 185.443H228.201L228.796 185.681C229.112 185.79 229.451 185.81 229.778 185.741C229.999 185.742 230.216 185.68 230.403 185.562C230.712 185.471 230.99 185.296 231.206 185.057C231.498 184.744 231.713 184.367 231.831 183.956C231.939 183.64 231.96 183.301 231.89 182.974C231.869 182.647 231.766 182.33 231.593 182.052V181.992C231.375 181.625 231.068 181.318 230.7 181.1C230.318 180.888 229.888 180.776 229.451 180.773H229.213L228.618 180.862C228.419 180.9 228.228 180.97 228.053 181.07L227.606 181.427C227.345 181.707 227.152 182.043 227.041 182.409H227.011Z" fill="#5E433F"/>
<path d="M228.261 185.265V185.324C228.468 185.554 228.736 185.719 229.034 185.8C229.321 185.97 229.655 186.044 229.986 186.009C230.309 186.046 230.634 185.972 230.909 185.8C231.207 185.719 231.476 185.554 231.682 185.324C231.914 185.102 232.098 184.834 232.221 184.537C232.343 184.24 232.403 183.92 232.396 183.599L232.307 182.944C232.188 182.543 231.973 182.175 231.682 181.873V181.873C231.477 181.635 231.209 181.46 230.909 181.368C230.612 181.225 230.286 181.154 229.957 181.16C229.637 181.154 229.321 181.225 229.034 181.368C228.734 181.46 228.466 181.635 228.261 181.873C227.811 182.324 227.554 182.932 227.547 183.569L227.636 184.224C227.749 184.628 227.964 184.997 228.261 185.295V185.265Z" fill="#5E433F"/>
<path d="M291.542 195.617C291.488 195.821 291.478 196.034 291.512 196.242C291.601 196.718 292.315 196.659 292.405 196.242C293.029 193.981 292.107 190.768 291.661 188.507C291.363 187.139 291.066 185.8 290.709 184.432C290.352 183.063 290.203 182.022 289.34 181.159C289.102 180.951 288.626 181.011 288.567 181.368C288.329 182.468 288.745 183.51 289.043 184.581C289.34 185.652 289.697 187.288 289.995 188.656C290.292 190.025 290.53 191.393 290.738 192.791C290.947 194.189 291.006 195.26 291.572 196.361L291.839 195.677L291.75 195.588C291.691 195.498 291.542 195.498 291.542 195.617V195.617Z" fill="#5E433F"/>
<path d="M293.714 169.022C293.684 168.814 293.684 168.576 293.654 168.368C293.659 168.218 293.649 168.069 293.624 167.921C293.867 166.348 293.529 164.741 292.672 163.399C292.429 162.988 292.08 162.649 291.661 162.418C290.815 161.433 289.697 160.719 288.448 160.365C288.113 160.25 287.758 160.21 287.406 160.246C286.038 159.473 284.372 158.997 283.003 158.342C282.494 158.123 281.95 157.992 281.397 157.955L278.6 156.498C278.104 156.205 277.539 156.051 276.964 156.051C275.744 155.07 274.494 154.148 273.394 153.315C270.329 151.054 267.473 149.477 264.052 146.919C263.516 146.502 261.523 144.717 261.255 145.134C260.243 143.408 260.541 144.122 259.262 142.605C259.262 141.683 258.161 141.147 257.417 140.433C253.311 136.388 249.146 132.401 245.13 128.296C244.72 127.881 244.206 127.583 243.642 127.433C242.337 126.413 240.824 125.692 239.209 125.321C238.83 125.227 238.436 125.207 238.049 125.261C236.294 124.757 234.487 124.458 232.664 124.369C232.151 124.335 231.637 124.438 231.176 124.666C229.748 124.577 228.35 124.785 227.279 125.47H226.773C225.97 125.47 225.048 125.678 224.482 126.303L224.274 126.511C223.382 126.686 222.507 126.934 221.656 127.255L221.269 127.433C220.792 127.471 220.327 127.602 219.901 127.82C219.614 127.79 219.325 127.79 219.038 127.82C217.669 127.969 216.628 129.337 217.402 130.676L217.729 131.033H217.699L217.848 131.122C217.848 131.402 217.878 131.681 217.937 131.955C217.937 132.104 217.907 132.252 217.907 132.431C217.937 133.009 217.997 133.585 218.086 134.156C218.286 136.199 219.072 138.141 220.347 139.749C222.073 141.861 224.988 142.813 227.249 144.211C232.354 147.349 237.199 150.891 241.738 154.802C243.613 156.408 245.993 155.932 247.183 154.386C249.503 155.754 252.032 154.207 252.508 152.006C253.035 152.11 253.579 152.083 254.092 151.927C254.606 151.772 255.073 151.492 255.454 151.113C255.84 151.708 256.197 152.303 256.584 152.868C258.637 156.2 263.189 154.207 263.189 151.054L263.843 151.768C263.639 151.995 263.49 152.266 263.408 152.56C263.325 152.854 263.311 153.163 263.367 153.463C263.843 155.873 266.313 158.015 268.038 159.621C269.764 161.228 271.876 163.013 273.721 164.768C274.435 166.702 275.744 168.605 276.726 170.152C277.821 171.853 279.024 173.483 280.326 175.031C281.04 176.489 281.932 177.857 282.735 179.256C283.539 180.654 284.282 182.111 285.324 183.361C285.413 183.758 285.583 184.132 285.824 184.459C286.064 184.787 286.37 185.061 286.722 185.265L287.258 185.503C287.559 185.72 287.903 185.871 288.267 185.948C288.63 186.025 289.006 186.025 289.37 185.949C289.866 186.04 290.376 186.009 290.857 185.86C290.852 188.268 291.011 190.673 291.334 193.059C291.393 193.327 291.78 193.238 291.81 193C292.048 190.501 292.137 188.002 292.256 185.473C292.256 185.235 292.286 184.997 292.286 184.759C292.286 184.521 292.345 184.67 292.345 184.61C293.112 182.808 293.3 180.812 292.881 178.899C293.237 178.183 293.449 177.405 293.505 176.608C293.684 175.388 293.862 174.169 293.446 172.979C293.802 171.691 293.893 170.345 293.714 169.022ZM240.875 153.285C241.173 153.523 240.994 153.404 240.875 153.285V153.285Z" fill="#5E433F"/>
<path d="M291.959 191.839C292.167 190.263 292.018 188.626 292.018 187.05C292.018 185.473 292.227 184.164 291.87 182.766C291.81 182.558 291.453 182.468 291.364 182.706C290.709 184.045 290.739 185.562 290.769 187.05C290.799 188.537 290.888 190.352 291.483 191.899C291.513 192.018 291.632 192.137 291.751 192.107C291.87 192.077 291.989 191.958 291.959 191.839Z" fill="#5E433F"/>
<path d="M292.255 192.167C292.255 192.137 292.226 192.107 292.196 192.077C292.224 192.033 292.235 191.98 292.226 191.929C292.255 191.006 292.166 190.114 292.107 189.192C292.102 188.934 292.112 188.675 292.136 188.418C292.136 187.169 292.285 185.86 291.75 184.7C291.631 184.432 291.303 184.581 291.214 184.759C290.708 185.979 290.917 187.437 290.976 188.716C290.976 189.103 291.006 189.489 291.036 189.846L290.887 189.579C290.923 189.44 290.912 189.294 290.857 189.162C290.53 188.24 290.203 187.288 289.846 186.366C289.31 184.7 288.685 183.064 288.001 181.427C287.971 181.398 287.971 181.338 287.942 181.279C287.614 180.535 286.424 181.07 286.662 181.814L286.454 181.874L286.186 181.457C286.143 181.386 286.087 181.325 286.021 181.276C285.954 181.228 285.878 181.192 285.798 181.173C285.718 181.154 285.635 181.15 285.553 181.163C285.472 181.176 285.394 181.205 285.323 181.249C285.234 181.307 285.16 181.386 285.108 181.48C285.056 181.573 285.028 181.678 285.026 181.784C285.026 183.302 285.799 184.581 286.513 185.89L286.573 185.979C286.989 188.061 288.09 190.203 288.894 191.81C289.191 192.434 290.084 193.446 290.351 192.94C290.589 193.327 290.679 193.416 290.887 193.803C291.095 194.19 292.702 193 292.255 192.167Z" fill="#5E433F"/>
<path d="M240.043 229.948C240.148 230.049 240.284 230.111 240.429 230.126C240.548 230.126 240.578 230.037 240.548 229.948C240.454 229.833 240.344 229.733 240.221 229.65C240.043 229.531 239.864 229.829 240.043 229.948V229.948Z" fill="#5E433F"/>
<path d="M243.047 231.019C243.582 226.883 243.255 222.689 243.761 218.554C243.999 216.561 244.356 214.567 244.743 212.574C245.129 210.581 245.903 208.469 245.367 206.714C245.159 205.97 244.326 205.851 243.791 206.297C242.363 207.428 241.827 209.956 241.41 211.652C240.899 213.828 240.521 216.034 240.28 218.256C239.834 222.421 239.536 227.27 240.815 231.316C241.232 232.595 242.898 232.238 243.047 231.019Z" fill="#5E433F"/>
<path d="M245.13 160.395C244.653 160.811 244.773 161.585 244.862 162.12C244.977 162.732 245.157 163.331 245.397 163.905C245.695 164.619 246.349 165.065 247.093 164.738C247.837 164.411 248.015 163.637 247.718 162.953C247.42 162.269 246.32 159.473 245.13 160.395Z" fill="#5E433F"/>
<path d="M244.981 161.317C244.594 162.269 244.386 163.251 244.059 164.232C243.731 165.214 243.285 165.839 243.196 166.731C243.107 167.624 243.969 168.01 244.624 167.832C244.813 167.773 244.985 167.67 245.125 167.53C245.265 167.39 245.369 167.218 245.427 167.029C245.814 166.047 245.04 167.713 245.606 166.553C245.754 166.226 245.873 165.898 245.992 165.571C246.498 164.173 246.647 162.715 246.111 161.317C246.058 161.172 245.952 161.052 245.814 160.98C245.677 160.909 245.518 160.891 245.368 160.93C245.278 160.961 245.197 161.012 245.13 161.079C245.063 161.146 245.012 161.227 244.981 161.317V161.317Z" fill="#5E433F"/>
<path d="M251.646 196.212C251.289 198.086 251.795 200.139 251.824 202.043L255.097 201.597C254.686 200.161 254.436 198.685 254.353 197.194L251.348 197.611C251.587 198.31 251.708 199.043 251.705 199.782H254.799C254.799 198.86 254.8 197.938 254.829 197.016L251.765 197.432C251.903 198.227 251.953 199.035 251.914 199.842L255.008 199.009L254.919 198.384H251.914C251.953 199.931 252.112 201.473 252.39 202.995C252.776 205.256 256.495 204.334 255.93 202.013C255.692 201.002 255.424 199.99 255.216 198.949L252.062 199.842C252.182 200.318 252.242 200.808 252.241 201.299L255.603 200.823C255.454 199.99 255.276 199.128 255.097 198.265L251.824 199.187C252.211 201.002 252.241 202.638 251.676 204.423C251.11 206.208 250.753 207.606 250.991 209.48C251.11 210.194 251.943 210.73 252.538 210.105C254.085 208.558 254.829 206.833 255.424 204.72C256.019 202.608 255.603 200.466 255.097 198.265C254.591 196.064 251.467 197.045 251.824 199.187C251.973 200.02 252.122 200.883 252.3 201.746C252.657 203.62 255.811 203.203 255.662 201.299C255.588 200.504 255.439 199.717 255.216 198.949C254.591 196.897 251.735 197.789 252.062 199.842C252.181 200.704 252.241 201.597 252.33 202.489L255.93 202.013C255.692 200.646 255.334 199.302 254.859 197.997C254.234 196.421 252.033 196.659 251.914 198.384C251.884 198.869 251.884 199.356 251.914 199.842C252.062 201.924 255.216 201.984 255.246 199.842C255.253 198.743 255.092 197.649 254.77 196.599C254.294 194.903 251.735 195.26 251.705 197.016C251.666 197.928 251.666 198.85 251.705 199.782C251.735 201.746 254.829 201.775 254.799 199.782C254.779 198.761 254.608 197.749 254.294 196.778C254.176 196.44 253.945 196.154 253.64 195.967C253.335 195.781 252.975 195.706 252.621 195.755C252.267 195.804 251.94 195.974 251.698 196.237C251.455 196.499 251.31 196.837 251.289 197.194C251.218 198.979 251.419 200.764 251.884 202.489C252.33 204.274 255.365 203.977 255.157 202.043C254.948 200.109 254.561 197.283 252.836 195.885C252.449 195.588 251.765 195.617 251.646 196.212V196.212Z" fill="#5E433F"/>
<path d="M242.898 223.611C243.523 221.975 243.969 220.279 244.653 218.673C245.338 217.066 246.706 215.668 246.319 214.002C246.141 213.348 245.457 213.08 244.832 213.169C242.868 213.526 241.916 216.739 241.47 218.405C241.024 220.071 240.399 222.689 241.529 223.968C241.976 224.474 242.69 224.147 242.898 223.611Z" fill="#5E433F"/>
<path d="M259.321 187.109C259.291 186.603 259.261 186.068 259.202 185.503C259.083 183.956 258.964 182.439 258.934 180.892C258.951 180.639 258.899 180.387 258.784 180.162C258.669 179.936 258.494 179.747 258.28 179.612C257.974 178.19 257.576 176.789 257.09 175.418C257.178 175.168 257.178 174.895 257.09 174.644C256.883 173.995 256.614 173.367 256.286 172.77C255.781 171.432 255.334 170.093 254.918 168.724C254.982 168.412 254.94 168.088 254.799 167.802C254.769 167.683 254.71 167.594 254.68 167.475C254.144 166.196 253.609 164.411 252.3 163.875C251.675 163.667 251.02 163.756 250.366 163.637C249.395 163.442 248.498 162.978 247.778 162.299C247.643 162.17 247.485 162.07 247.312 162.003C247.139 161.937 246.954 161.905 246.768 161.911C246.583 161.916 246.4 161.959 246.231 162.035C246.062 162.112 245.91 162.222 245.784 162.358C245.608 162.373 245.44 162.437 245.298 162.542C245.156 162.647 245.046 162.789 244.981 162.953C244.356 164.619 243.672 166.226 242.898 167.832L242.809 168.01L241.589 170.331C241.426 170.263 241.246 170.244 241.072 170.276C240.898 170.308 240.737 170.389 240.607 170.509C240.102 170.973 239.688 171.529 239.388 172.146L239.269 172.205C237.275 173.038 236.621 175.18 236.085 177.114C235.55 179.047 234.36 181.368 234.657 183.51C234.3 185.384 234.806 187.288 235.639 189.102C235.928 190.82 236.356 192.511 236.918 194.16C236.981 194.397 237.108 194.613 237.287 194.781C237.466 194.949 237.689 195.064 237.93 195.112C238.079 195.855 238.257 196.569 238.436 197.283C238.487 197.469 238.577 197.642 238.7 197.791C238.823 197.94 238.977 198.061 239.15 198.146V200.913C237.879 202.454 236.735 204.096 235.728 205.821C233.348 209.689 231.831 213.913 233.616 218.226C233.675 220.101 233.913 222.064 234.657 223.76C235.014 226.467 235.907 230.87 238.912 231.643H239.06C239.893 232.774 240.994 233.666 242.452 233.666C242.656 233.67 242.855 233.608 243.021 233.491C243.187 233.373 243.311 233.205 243.374 233.012C243.455 232.98 243.526 232.929 243.583 232.863C244.475 232.06 243.999 230.483 243.821 229.442C243.642 228.401 243.553 226.735 242.452 226.14C242.332 226.079 242.199 226.049 242.065 226.05C241.946 225.515 241.708 224.89 241.292 224.593C241.305 224.409 241.272 224.225 241.193 224.058C241.115 223.891 240.995 223.748 240.845 223.641C240.726 222.957 240.935 221.767 240.935 221.261C240.935 220.755 240.964 219.744 241.024 219C241.057 218.925 241.078 218.844 241.083 218.762C241.262 218.048 241.44 217.334 241.649 216.65C241.783 216.84 241.955 216.999 242.155 217.117C242.355 217.235 242.578 217.309 242.809 217.334C242.429 218.014 242.12 218.732 241.887 219.476C241.381 221.082 241.232 222.986 242.006 224.533C242.054 224.61 242.117 224.676 242.192 224.728C242.266 224.78 242.35 224.817 242.438 224.836C242.527 224.856 242.618 224.857 242.708 224.841C242.797 224.825 242.882 224.791 242.958 224.741C243.042 224.688 243.113 224.617 243.166 224.533C243.88 222.808 244.118 220.874 244.862 219.149C245.104 218.641 245.303 218.113 245.457 217.572L245.725 217.275L245.992 216.799C246.168 217.003 246.399 217.153 246.657 217.232C246.915 217.311 247.19 217.316 247.45 217.245C248.22 217.043 248.968 216.764 249.682 216.412C249.88 216.447 250.084 216.438 250.279 216.387C250.475 216.336 250.656 216.243 250.812 216.114C252.567 214.865 253.609 213.169 254.234 211.117C254.35 210.938 254.45 210.749 254.531 210.551C254.681 210.345 254.792 210.113 254.858 209.867C254.977 209.57 255.037 209.242 255.126 208.945C255.556 207.573 255.826 206.155 255.929 204.721C255.949 203.813 255.879 202.907 255.721 202.013C255.78 201.831 255.81 201.64 255.81 201.448C255.81 200.199 255.572 199.157 254.71 198.235L254.65 198.176C254.62 197.997 254.62 197.819 254.591 197.64C254.855 197.575 255.107 197.464 255.334 197.313L255.751 196.956C257.804 196.123 259.499 195.29 259.857 192.791C260.095 191.215 260.481 188.507 259.321 187.109Z" fill="#5E433F"/>
<path d="M243.047 220.993C243.761 219.387 245.367 218.107 246.825 217.185C246.957 217.117 247.074 217.022 247.168 216.907C247.263 216.792 247.333 216.659 247.374 216.517C247.416 216.374 247.428 216.224 247.41 216.077C247.393 215.929 247.345 215.786 247.271 215.658C247.196 215.529 247.096 215.417 246.977 215.328C246.858 215.238 246.722 215.174 246.578 215.139C246.433 215.104 246.283 215.098 246.137 215.123C245.99 215.147 245.85 215.201 245.724 215.281C244.772 215.876 243.969 216.68 243.374 217.632C242.72 218.613 242.571 219.595 242.363 220.696C242.273 221.112 242.868 221.41 243.047 220.993Z" fill="#5E433F"/>
<path d="M235.58 190.679C235.61 190.768 235.521 190.56 235.521 190.56C235.512 190.516 235.492 190.474 235.461 190.441C235.425 190.278 235.375 190.119 235.312 189.965C235.163 189.608 234.628 189.281 234.271 189.519C234.089 189.636 233.955 189.815 233.895 190.022C233.834 190.23 233.852 190.453 233.944 190.649C234.055 190.906 234.184 191.155 234.33 191.393C234.425 191.559 234.582 191.68 234.766 191.73C234.95 191.78 235.147 191.755 235.312 191.661C235.478 191.566 235.599 191.409 235.649 191.225C235.7 191.041 235.675 190.845 235.58 190.679V190.679Z" fill="white"/>
<path d="M234.301 185.324C234.301 188.418 236.116 191.423 234.122 191.423C233.2 191.423 232.516 188.894 232.426 185.8C232.337 182.706 232.129 179.375 231.534 177.619C230.641 175.002 235.312 174.942 235.878 174.942C236.443 174.942 234.301 182.23 234.301 185.324Z" fill="#F4DDC8"/>
<path d="M263.158 148.581L248.464 156.559L256.664 171.659L271.358 163.682L263.158 148.581Z" fill="#F4DDC8"/>
<path d="M14.231 269.127C86.2587 269.127 86.2587 269.781 158.286 269.781C230.314 269.781 230.284 269.127 302.312 269.127" stroke="black" stroke-width="1.34078" stroke-miterlimit="10" stroke-linecap="round"/>
<path d="M10.3927 22.2114L9.20264 68.9766L10.3927 115.772L9.20264 162.566L10.2142 208.945L58.5004 209.956L107.233 208.766L155.966 209.956L204.668 208.766" stroke="black" stroke-width="1.34078" stroke-miterlimit="10" stroke-linecap="round"/>
<path d="M5.33496 33.8135C6.19775 27.7447 10.1844 21.5867 10.1844 21.5867C10.2095 21.5376 10.2442 21.494 10.2863 21.4584C10.3284 21.4228 10.3772 21.3959 10.4297 21.3793C10.4823 21.3627 10.5377 21.3567 10.5926 21.3617C10.6475 21.3666 10.7009 21.3824 10.7497 21.4082C10.8289 21.444 10.8924 21.5074 10.9282 21.5867C10.9282 21.5867 13.6951 30.7493 15.8074 34.1704" stroke="black" stroke-width="1.34078" stroke-miterlimit="10" stroke-linecap="round"/>
<path d="M11.7017 181.07C43.6545 181.07 43.6545 182.26 75.6371 182.26C107.62 182.26 107.62 181.07 139.573 181.07C171.525 181.07 171.555 182.26 203.538 182.26" stroke="black" stroke-width="1.34078" stroke-miterlimit="10" stroke-linecap="round"/>
<path d="M11.7017 153.374C43.6545 153.374 43.6545 154.564 75.6371 154.564C107.62 154.564 107.62 153.374 139.573 153.374C171.525 153.374 171.555 154.564 203.538 154.564" stroke="black" stroke-width="1.34078" stroke-miterlimit="10" stroke-linecap="round"/>
<path d="M11.7017 125.678C43.6545 125.678 43.6545 126.868 75.6371 126.868C107.62 126.868 107.62 125.678 139.573 125.678C171.525 125.678 171.555 126.868 203.538 126.868" stroke="black" stroke-width="1.34078" stroke-miterlimit="10" stroke-linecap="round"/>
<path d="M11.7017 97.9818C43.6545 97.9818 43.6545 99.1718 75.6371 99.1718C107.62 99.1718 107.62 97.9818 139.573 97.9818C171.525 97.9818 171.555 99.1718 203.538 99.1718" stroke="black" stroke-width="1.34078" stroke-miterlimit="10" stroke-linecap="round"/>
<path d="M11.7017 70.2855C43.6545 70.2855 43.6545 71.4755 75.6371 71.4755C107.62 71.4755 107.62 70.2855 139.573 70.2855C171.525 70.2855 171.555 71.4755 203.538 71.4755" stroke="black" stroke-width="1.34078" stroke-miterlimit="10" stroke-linecap="round"/>
<path d="M11.7017 42.5894C43.6545 42.5894 43.6545 43.7793 75.6371 43.7793C107.62 43.7793 107.62 42.5894 139.573 42.5894C171.525 42.5894 171.555 43.7793 203.538 43.7793" stroke="black" stroke-width="1.34078" stroke-miterlimit="10" stroke-linecap="round"/>
<path d="M40.2624 39.3467C40.2624 67.6676 39.6079 67.6676 39.6079 96.0182C39.6079 124.369 40.2624 124.369 40.2624 152.719C40.2624 181.07 39.6079 181.04 39.6079 209.391" stroke="black" stroke-width="1.34078" stroke-miterlimit="10" stroke-linecap="round"/>
<path d="M67.9612 39.3467C67.9612 67.6676 67.3066 67.6676 67.3066 96.0182C67.3066 124.369 67.9612 124.369 67.9612 152.719C67.9612 181.07 67.3066 181.04 67.3066 209.391" stroke="black" stroke-width="1.34078" stroke-miterlimit="10" stroke-linecap="round"/>
<path d="M95.6599 39.3467C95.6599 67.6676 95.0054 67.6676 95.0054 96.0182C95.0054 124.369 95.6599 124.369 95.6599 152.719C95.6599 181.07 95.0054 181.04 95.0054 209.391" stroke="black" stroke-width="1.34078" stroke-miterlimit="10" stroke-linecap="round"/>
<path d="M123.358 39.3467C123.358 67.6676 122.704 67.6676 122.704 96.0182C122.704 124.369 123.358 124.369 123.358 152.719C123.358 181.07 122.704 181.04 122.704 209.391" stroke="black" stroke-width="1.34078" stroke-miterlimit="10" stroke-linecap="round"/>
<path d="M151.057 39.3467C151.057 67.6676 150.402 67.6676 150.402 96.0182C150.402 124.369 151.057 124.369 151.057 152.719C151.057 181.07 150.402 181.04 150.402 209.391" stroke="black" stroke-width="1.34078" stroke-miterlimit="10" stroke-linecap="round"/>
<path d="M178.755 39.3467C178.755 67.6676 178.1 67.6676 178.1 96.0182C178.1 124.369 178.755 124.369 178.755 152.719C178.755 181.07 178.1 181.04 178.1 209.391" stroke="black" stroke-width="1.34078" stroke-miterlimit="10" stroke-linecap="round"/>
<path d="M231.801 177.857C230.582 176.638 228.767 176.519 227.279 177.262C225.792 178.006 225.673 178.631 224.602 178.988H224.512C223.789 178.722 223.007 178.66 222.251 178.809C221.568 178.902 220.892 179.041 220.228 179.226H220.109C219.034 178.803 217.93 178.455 216.807 178.185C216.628 177.589 216.276 177.061 215.795 176.667L214.486 175.537C212.88 173.514 211.184 171.551 209.399 169.676C209.267 169.192 209.108 168.715 208.923 168.248C208.566 167.415 207.614 166.85 206.632 166.701C206.632 166.672 206.602 166.672 206.602 166.642C206.161 166.106 205.534 165.756 204.847 165.66C204.53 165.427 204.168 165.261 203.784 165.174C203.4 165.087 203.002 165.08 202.616 165.155V165.155C202.733 164.843 202.786 164.511 202.771 164.178C202.756 163.846 202.672 163.52 202.526 163.221V162.745C202.526 162.09 202.586 161.436 202.645 160.781C202.645 160.722 202.675 160.692 202.675 160.633C202.915 160.481 203.119 160.278 203.27 160.038C204.073 158.669 204.192 157.122 204.401 155.605C204.609 154.088 204.877 152.244 205.204 150.607C205.509 149.009 205.998 147.452 206.662 145.967C209.25 144.241 212.582 143.021 214.695 140.76C215.914 139.452 216.331 137.875 216.777 136.209C217.223 134.543 217.729 133.026 218.622 131.628C221.27 127.463 216.599 126.422 212.552 127.284C211.838 127.165 211.779 127.403 211.095 127.82C210.618 127.859 210.148 127.959 209.696 128.117C207.792 129.069 206.602 129.396 205.263 131.033L204.43 131.895C204.133 131.925 203.895 133.145 203.657 133.323C203.464 133.47 203.307 133.658 203.198 133.875C203.09 134.092 203.033 134.33 203.032 134.573C203.032 134.751 202.229 134.989 202.288 135.168C200.89 137.22 200.622 139.481 199.849 141.98C199.097 144.57 198.501 147.203 198.064 149.864C197.588 152.511 196.933 154.832 197.201 157.212C196.903 158.074 196.665 158.937 196.457 159.8C196.34 160.02 196.241 160.248 196.16 160.484C195.654 162.031 194.612 163.072 194.196 164.649C194.107 164.768 194.285 165.065 194.196 165.184C194.107 165.303 193.363 164.768 194.017 165.303C193.125 165.036 193.958 165.571 193.958 165.571C193.036 166.791 192.798 168.01 191.994 169.29C190.596 170.718 189.257 172.205 188.008 173.752C187.256 173.838 186.554 174.173 186.014 174.704L184.735 175.983L183.426 177.024C182.272 177.614 181.159 178.279 180.094 179.018C178.431 180.249 176.878 181.623 175.453 183.123C174.114 183.153 172.775 185.532 172.537 186.931C172.448 187.436 172.15 186.544 172.061 187.05C171.972 187.555 172.448 189.251 172.12 189.727C171.466 190.739 170.603 190.858 171.287 191.81C171.392 192.251 171.582 192.667 171.848 193.034C172.113 193.402 172.449 193.714 172.835 193.951C174.114 194.695 175.512 194.308 176.613 193.446C177.095 193.075 177.602 192.737 178.13 192.434L178.249 192.375C178.638 192.736 179.12 192.98 179.641 193.08C180.162 193.18 180.7 193.132 181.195 192.94L182.295 192.494L185.806 192.702C187.418 192.821 189.019 193.06 190.596 193.416C190.706 193.588 190.806 193.767 190.894 193.951C190.923 195.112 190.983 196.272 191.102 197.402C191.102 199.901 191.132 202.4 191.251 204.869C191.251 204.899 191.221 204.958 191.221 204.988C190.386 207.104 190.09 209.394 190.358 211.652L190.447 212.128C190.094 213.605 189.585 215.041 188.93 216.412C188.216 217.929 188.394 219.684 189.793 220.725C191.191 221.767 192.47 222.719 193.541 221.41C196.874 217.364 200.949 213.08 204.311 209.034C204.877 208.915 205.323 207.933 205.739 207.487L208.506 204.304C208.748 204.027 208.949 203.717 209.101 203.382C210.592 201.692 212.193 200.102 213.891 198.622C216.48 196.361 218.919 193.981 221.329 191.512C223.501 190.59 225.464 188.983 227.22 187.288L227.815 186.871C228.41 186.514 229.037 186.216 229.689 185.979C231.415 185.384 232.337 184.045 232.397 182.409C233.378 181.1 232.873 178.928 231.801 177.857ZM231.058 183.748L230.998 183.658C231.117 183.539 231.147 183.569 231.058 183.748V183.748Z" fill="#5E433F"/>
<path d="M11.0767 208.171L39.9354 181.635L67.2173 126.422L95.1239 98.3387L122.733 126.57L150.967 70.4343L178.427 43.1547" stroke="#F45D48" stroke-width="2.0096" stroke-miterlimit="10" stroke-linecap="round"/>
<path d="M211.124 142.397C208.919 143.336 207.098 144.994 205.958 147.101C204.818 149.208 204.426 151.64 204.846 153.999C206.661 163.637 211.659 180.981 224.274 179.137C241.619 176.608 244.981 163.905 244.564 158.848C244.148 153.791 231.147 146.562 221.537 140.731C220.228 139.957 216.985 136.923 218.621 131.092C218.681 130.884 218.889 130.408 218.8 130.616C218.234 132.193 217.312 134.603 216.003 137.905C214.694 141.207 213.207 141.504 211.124 142.397Z" fill="#F4DDC8" stroke="black" stroke-width="1.34078" stroke-miterlimit="10" stroke-linecap="round"/>
<path d="M224.899 165.601C228.974 165.601 232.277 162.298 232.277 158.223C232.277 154.148 228.974 150.845 224.899 150.845C220.824 150.845 217.521 154.148 217.521 158.223C217.521 162.298 220.824 165.601 224.899 165.601Z" fill="white" stroke="black" stroke-width="1.34078" stroke-miterlimit="10" stroke-linecap="round"/>
<path d="M206.572 167.713C210.171 167.713 213.088 164.796 213.088 161.198C213.088 157.6 210.171 154.683 206.572 154.683C202.974 154.683 200.057 157.6 200.057 161.198C200.057 164.796 202.974 167.713 206.572 167.713Z" fill="white" stroke="black" stroke-width="1.34078" stroke-miterlimit="10" stroke-linecap="round"/>
<path d="M219.455 176.965C219.455 176.965 222.727 177.292 223.59 173.633" stroke="black" stroke-width="1.34078" stroke-miterlimit="10" stroke-linecap="round"/>
<path d="M231.92 155.962C231.92 155.962 247.599 149.834 249.712 150.846" stroke="black" stroke-width="1.34078" stroke-miterlimit="10" stroke-linecap="round"/>
<path d="M171.585 190.62C173.013 176.191 194.761 180.267 197.707 150.726C200.652 121.186 219.514 127.552 219.514 127.552C219.514 127.552 238.644 118.568 248.165 130.557C257.685 142.546 273.334 156.141 282.646 158.223C291.959 160.306 294.696 164.857 293.863 171.372C293.03 177.887 290.382 193.386 295.32 202.608" stroke="black" stroke-width="1.34078" stroke-miterlimit="10" stroke-linecap="round"/>
<path d="M231.058 177.411C231.058 177.411 233.854 180.951 232.188 184.997C232.188 184.997 231.712 189.459 236.74 193.327" stroke="black" stroke-width="1.34078" stroke-miterlimit="10" stroke-linecap="round"/>
<path d="M191.578 223.938C191.578 223.938 223.203 185.771 232.188 184.997Z" fill="#C4B096"/>
<path d="M191.578 223.938C191.578 223.938 223.203 185.771 232.188 184.997" stroke="black" stroke-width="1.34078" stroke-miterlimit="10" stroke-linecap="round"/>
<path d="M220.465 210.849C220.465 210.849 210.082 248.927 209.874 269.097Z" fill="#C4B096"/>
<path d="M220.465 210.849C220.465 210.849 210.082 248.927 209.874 269.097" stroke="black" stroke-width="1.31566" stroke-miterlimit="10" stroke-linecap="round"/>
<path d="M223.798 130.557C223.798 130.557 234.479 124.518 249.711 141.504C264.944 158.491 278.362 156.825 283.925 164.381C289.489 171.937 283.092 171.521 286.93 179.285" stroke="black" stroke-width="1.34078" stroke-miterlimit="10" stroke-linecap="round"/>
<path d="M292.91 259.191C292.91 259.191 296.064 265.854 297.254 269.067" stroke="black" stroke-width="1.34078" stroke-miterlimit="10" stroke-linecap="round"/>
<path d="M252.508 163.846C252.508 163.846 254.769 166.761 255.691 170.242" stroke="black" stroke-width="1.34078" stroke-miterlimit="10" stroke-linecap="round"/>
<path d="M221.507 158.967C221.507 158.967 224.691 161.109 227.904 158.669" stroke="black" stroke-width="1.34078" stroke-miterlimit="10" stroke-linecap="round"/>
<path d="M203.954 161.525C203.954 161.525 205.65 164.679 209.577 161.228" stroke="black" stroke-width="1.34078" stroke-miterlimit="10" stroke-linecap="round"/>
<path d="M210.708 256.781L197.974 268.948" stroke="black" stroke-width="1.10842" stroke-miterlimit="10" stroke-linecap="round"/>
<path d="M189.019 276.475L140.435 276.832C138.841 276.84 137.307 276.22 136.166 275.107C135.025 273.994 134.368 272.476 134.336 270.882C133.414 246.875 131.004 222.897 130.022 198.89C130.231 194.725 133.95 191.512 137.252 191.482L185.866 191.155C187.457 191.147 188.987 191.768 190.124 192.882C191.261 193.996 191.911 195.514 191.935 197.105C191.816 197.105 191.727 221.618 193.184 229.68C195.118 240.3 195.118 270.436 194.94 270.436C194.955 271.213 194.818 271.986 194.535 272.71C194.252 273.435 193.829 274.096 193.29 274.657C192.751 275.218 192.107 275.667 191.395 275.979C190.683 276.291 189.916 276.459 189.138 276.475H189.019Z" fill="white" stroke="black" stroke-width="1.34078" stroke-miterlimit="10" stroke-linecap="round"/>
<path d="M182.385 201.716C182.397 202.091 182.334 202.465 182.202 202.816C182.069 203.167 181.869 203.488 181.612 203.762C181.355 204.035 181.046 204.256 180.704 204.41C180.362 204.564 179.993 204.65 179.618 204.661H179.558C178.782 204.662 178.035 204.362 177.474 203.824C176.914 203.286 176.584 202.552 176.553 201.775C176.537 201.404 176.595 201.034 176.722 200.685C176.85 200.336 177.045 200.015 177.296 199.742C177.548 199.468 177.851 199.247 178.188 199.09C178.525 198.934 178.889 198.846 179.261 198.83H179.38C180.157 198.83 180.903 199.13 181.464 199.668C182.024 200.206 182.354 200.94 182.385 201.716V201.716Z" fill="#C4B096" stroke="black" stroke-width="1.34078" stroke-miterlimit="10" stroke-linecap="round"/>
<path d="M175.393 201.775C175.405 202.151 175.343 202.524 175.21 202.875C175.078 203.226 174.877 203.548 174.62 203.821C174.363 204.095 174.055 204.315 173.713 204.469C173.371 204.624 173.001 204.709 172.626 204.721H172.567C171.79 204.721 171.043 204.421 170.483 203.883C169.923 203.345 169.593 202.611 169.562 201.835C169.55 201.455 169.614 201.076 169.75 200.722C169.887 200.367 170.093 200.043 170.356 199.768C170.619 199.494 170.935 199.275 171.284 199.124C171.633 198.973 172.008 198.894 172.388 198.89H172.418C173.194 198.882 173.942 199.18 174.499 199.721C175.056 200.261 175.378 201 175.393 201.775V201.775Z" fill="#C4B096" stroke="black" stroke-width="1.34078" stroke-miterlimit="10" stroke-linecap="round"/>
<path d="M182.623 208.707C182.639 209.078 182.581 209.449 182.454 209.798C182.327 210.147 182.131 210.467 181.88 210.741C181.629 211.014 181.326 211.236 180.989 211.392C180.651 211.548 180.287 211.637 179.916 211.652H179.826C179.042 211.653 178.287 211.349 177.722 210.806C177.156 210.262 176.822 209.521 176.792 208.737C176.776 208.369 176.832 208.003 176.958 207.657C177.084 207.312 177.277 206.995 177.526 206.724C177.775 206.453 178.074 206.234 178.408 206.079C178.741 205.924 179.102 205.837 179.469 205.821H179.588C180.372 205.805 181.131 206.099 181.699 206.64C182.268 207.18 182.6 207.923 182.623 208.707V208.707Z" fill="#C4B096" stroke="black" stroke-width="1.34078" stroke-miterlimit="10" stroke-linecap="round"/>
<path d="M173.936 208.766C173.944 208.923 173.921 209.079 173.868 209.227C173.816 209.374 173.735 209.51 173.63 209.626C173.525 209.742 173.398 209.836 173.256 209.903C173.115 209.97 172.961 210.008 172.805 210.016H172.775C172.446 210.016 172.129 209.89 171.891 209.663C171.653 209.435 171.511 209.125 171.496 208.796C171.492 208.636 171.52 208.477 171.577 208.327C171.635 208.178 171.722 208.041 171.832 207.925C171.943 207.809 172.075 207.716 172.221 207.651C172.368 207.586 172.526 207.551 172.686 207.547V207.547C173.01 207.554 173.319 207.684 173.551 207.91C173.783 208.137 173.921 208.443 173.936 208.766V208.766Z" stroke="black" stroke-width="1.34078" stroke-miterlimit="10" stroke-linecap="round"/>
<path d="M219.811 213.14C219.811 213.14 215.378 248.898 195.147 266.539C194.582 267.044 194.166 269.276 194.642 269.9L197.944 269.454L210.469 257.049L219.811 213.14Z" fill="black"/>
<path d="M212.522 156.319C212.522 156.736 213.623 157.836 213.087 160.841C212.552 163.846 206.81 170.182 210.618 171.075C214.426 171.967 216.568 170.599 216.568 170.599" fill="#F4DDC8"/>
<path d="M212.522 156.319C212.522 156.736 213.623 157.836 213.087 160.841C212.552 163.846 206.81 170.182 210.618 171.075C214.426 171.967 216.568 170.599 216.568 170.599" stroke="black" stroke-width="1.34078" stroke-miterlimit="10" stroke-linecap="round"/>
<path d="M217.521 159.116C217.521 159.116 214.01 157.182 212.879 159.562" stroke="black" stroke-width="1.34078" stroke-miterlimit="10" stroke-linecap="round"/>
<path d="M70.1924 208.618C70.1924 203.531 70.8171 203.531 70.8171 198.444C70.8171 193.357 70.1626 193.327 70.1626 188.24" stroke="black" stroke-width="1.34078" stroke-miterlimit="10" stroke-linecap="round"/>
<path d="M74.9229 208.975C74.9229 204.899 75.5476 204.899 75.5476 200.823C75.5476 196.748 74.9229 196.748 74.9229 192.672" stroke="black" stroke-width="1.34078" stroke-miterlimit="10" stroke-linecap="round"/>
<path d="M79.1177 208.975C79.1177 206.059 79.7425 206.059 79.7425 203.174C79.7425 200.288 79.1177 200.258 79.1177 197.343" stroke="black" stroke-width="1.34078" stroke-miterlimit="10" stroke-linecap="round"/>
<path d="M253.341 282.216C253.341 282.841 252.122 283.406 250.039 283.882C246.32 284.715 239.775 285.28 232.337 285.28C224.899 285.28 218.384 284.715 214.665 283.882C212.552 283.406 211.362 282.841 211.362 282.216C211.362 280.55 220.764 279.182 232.337 279.182C243.91 279.182 253.341 280.55 253.341 282.216Z" fill="#F5BD46" stroke="black" stroke-width="0.66882" stroke-miterlimit="10"/>
<path d="M253.341 282.216V285.518C253.341 287.184 243.94 288.553 232.337 288.553C220.734 288.553 211.362 287.184 211.362 285.518V282.216C211.362 282.841 212.552 283.406 214.665 283.882C218.384 284.715 224.899 285.28 232.337 285.28C239.775 285.28 246.32 284.715 250.039 283.882C252.122 283.406 253.341 282.841 253.341 282.216Z" fill="#F5BD46" stroke="black" stroke-width="0.66882" stroke-miterlimit="10"/>
<path d="M237.067 285.191V288.464" stroke="black" stroke-width="0.66882" stroke-miterlimit="10"/>
<path d="M245.546 284.596V287.869" stroke="black" stroke-width="0.66882" stroke-miterlimit="10"/>
<path d="M251.734 276.862C251.734 277.486 250.515 278.051 248.432 278.498C244.713 279.36 238.168 279.926 230.73 279.926C223.292 279.926 216.777 279.36 213.058 278.498C210.945 278.051 209.755 277.486 209.755 276.862C209.755 275.196 219.157 273.827 230.73 273.827C242.303 273.827 251.734 275.196 251.734 276.862Z" fill="#F5BD46" stroke="black" stroke-width="0.66882" stroke-miterlimit="10"/>
<path d="M251.734 276.861V280.163C251.734 281.829 242.333 283.198 230.73 283.198C219.127 283.198 209.755 281.829 209.755 280.163V276.861C209.755 277.486 210.945 278.051 213.058 278.498C216.777 279.36 223.292 279.925 230.73 279.925C238.168 279.925 244.713 279.36 248.432 278.498C250.515 278.051 251.734 277.486 251.734 276.861Z" fill="#F5BD46" stroke="black" stroke-width="0.66882" stroke-miterlimit="10"/>
<path d="M211.362 278.022V281.324" stroke="black" stroke-width="0.66882" stroke-miterlimit="10"/>
<path d="M250.128 278.022V281.324" stroke="black" stroke-width="0.66882" stroke-miterlimit="10"/>
<path d="M217.55 279.241V282.514" stroke="black" stroke-width="0.66882" stroke-miterlimit="10"/>
<path d="M226.535 279.896V283.138" stroke="black" stroke-width="0.66882" stroke-miterlimit="10"/>
<path d="M235.461 279.836V283.109" stroke="black" stroke-width="0.66882" stroke-miterlimit="10"/>
<path d="M243.94 279.241V282.514" stroke="black" stroke-width="0.66882" stroke-miterlimit="10"/>
<path d="M228.647 285.191V288.553" stroke="black" stroke-width="0.66882" stroke-miterlimit="10"/>
<path d="M218.651 284.656V287.779" stroke="black" stroke-width="0.66882" stroke-miterlimit="10"/>
<path d="M213.147 283.436V286.738" stroke="black" stroke-width="0.66882" stroke-miterlimit="10"/>
<path d="M211.69 176.697C211.69 176.697 218.889 185.89 206.096 193.624C193.303 201.359 193.898 210.611 193.779 214.062" stroke="black" stroke-width="1.34078" stroke-miterlimit="10" stroke-linecap="round"/>
<path d="M255.037 197.492C255.037 197.492 262.237 272.756 296.986 268.919L290.471 250.623C290.471 250.623 270.597 256.037 259.262 203.382L259.678 194.398L255.037 197.492Z" fill="black"/>
<path d="M231.593 151.321C233.586 150.102 235.193 148.584 237.484 147.841C239.979 147.114 242.54 146.635 245.13 146.413C247.629 146.145 250.277 145.967 252.746 146.562C253.728 146.829 254.799 147.157 255.721 146.532C256.644 145.907 256.763 144.628 256.346 143.646C255.305 141.266 251.943 140.761 249.712 140.582C246.985 140.368 244.243 140.528 241.56 141.058C237.216 141.861 230.701 144.687 229.659 149.745C229.362 151.232 231.058 152.065 231.593 151.321V151.321Z" fill="#F4DDC8"/>
<path d="M238.614 172.77C238.614 172.77 230.195 181.249 236.74 193.327C243.285 205.405 231.444 203.471 232.932 216.59C234.419 229.71 238.644 232.655 242.452 233.934C246.26 235.213 240.132 218.048 247.956 217.215C255.781 216.382 257.06 202.608 255.364 198.801C253.669 194.993 260.66 198.592 259.797 189.935" stroke="black" stroke-width="1.34078" stroke-miterlimit="10" stroke-linecap="round"/>
<path d="M265.837 152.809C269.169 158.699 258.935 163.846 252.508 163.846C247.034 163.846 243.167 158.193 243.167 152.481C243.167 146.77 246.261 142.129 252.687 142.129C259.113 142.129 263.04 147.841 265.837 152.809Z" fill="#F4DDC8"/>
<path d="M270.121 161.228C270.121 161.228 262.326 142.248 253.341 141.296C244.356 140.344 235.193 142.456 231.058 148.912" stroke="black" stroke-width="1.34078" stroke-miterlimit="10" stroke-linecap="round"/>
<path d="M234.598 152.66C237.322 150.821 240.441 149.649 243.702 149.239C245.211 149.051 246.733 148.981 248.254 149.031C250.158 149.09 252.062 149.507 253.817 148.584C255.572 147.662 255.305 145.877 254.323 144.747C252.835 143.081 250.098 143.021 247.986 142.962C245.842 142.931 243.703 143.171 241.619 143.676C237.93 144.628 233.527 146.978 232.158 150.786C231.682 152.125 233.437 153.434 234.598 152.66V152.66Z" fill="#F4DDC8"/>
<path d="M237.037 154.415C238.317 154.088 239.507 153.225 240.667 152.571C241.826 151.916 243.067 151.416 244.356 151.083C245.67 150.767 247.025 150.656 248.372 150.756C250.039 150.875 251.586 151.53 253.252 151.5C255.572 151.47 257.476 148.138 255.334 146.472C252.032 143.884 246.855 144.182 243.047 145.491C240.042 146.502 235.55 148.852 234.984 152.363C234.776 153.612 235.698 154.742 237.037 154.415Z" fill="#F4DDC8"/>
<path d="M240.875 153.761C243.404 152.868 246.35 152.392 248.998 152.66C250.069 152.749 251.11 153.523 252.092 153.939C253.639 154.594 254.918 155.575 256.673 155.129C257.863 154.832 258.429 153.791 258.548 152.66C258.815 150.34 256.435 148.852 254.561 148.138C252.687 147.424 250.783 147.305 248.908 147.335C245.011 147.365 241.262 148.465 239.18 151.916C238.555 152.958 239.656 154.207 240.875 153.761V153.761Z" fill="#F4DDC8"/>
<path d="M238.019 159.086C239.953 159.562 241.827 158.997 243.761 159.8C245.695 160.603 247.867 162.12 250.069 162.923C252.27 163.727 255.215 163.994 257.387 162.537C259.559 161.079 261.731 158.372 259.857 156.051C258.934 154.921 257.417 154.832 256.168 155.427C254.918 156.022 254.62 156.795 253.758 157.182C254.382 156.884 253.668 157.122 253.371 157.093C252.752 156.994 252.144 156.834 251.556 156.617C250.515 156.26 249.563 155.784 248.581 155.337C246.32 154.356 243.791 153.463 241.292 153.85C238.793 154.237 237.037 155.367 236.918 157.688C236.917 158.011 237.024 158.325 237.224 158.579C237.424 158.833 237.705 159.012 238.019 159.086V159.086Z" fill="#F4DDC8"/>
<path d="M233.883 150.845C233.883 150.845 238.703 142.902 249.235 142.962" stroke="black" stroke-width="1.34078" stroke-miterlimit="10" stroke-linecap="round"/>
<path d="M238.109 152.065C238.109 152.065 241.292 147.395 250.813 146.472" stroke="black" stroke-width="1.34078" stroke-miterlimit="10" stroke-linecap="round"/>
<path d="M238.109 156.974C238.109 156.974 244.476 157.241 247.332 161.704C250.188 166.166 259.857 161.228 259.857 161.228" stroke="black" stroke-width="1.34078" stroke-miterlimit="10" stroke-linecap="round"/>
<path d="M252.508 150.637C252.508 150.637 246.32 149.269 241.56 152.125" stroke="black" stroke-width="1.34078" stroke-miterlimit="10" stroke-linecap="round"/>
<path d="M270.597 162.834C270.597 162.834 307.429 224.92 304.573 250.95C304.573 250.95 309.571 245.328 306.923 233.666C305.109 225.783 297.225 200.675 270.597 162.834Z" fill="white"/>
<path d="M91.792 277.308C91.8218 278.29 89.8582 279.241 86.4665 280.045C80.4568 281.502 69.8653 282.544 57.7863 282.692C45.7073 282.841 35.1159 282.068 29.0466 280.788C25.655 280.045 23.6617 279.152 23.6617 278.171C23.6319 275.434 38.8348 273.024 57.6673 272.786C76.4999 272.548 91.7623 274.571 91.792 277.308Z" fill="#F5BD46" stroke="black" stroke-width="0.87606" stroke-miterlimit="10" stroke-linecap="round"/>
<path d="M91.792 277.308L91.8515 282.633C91.911 285.37 76.6783 287.779 57.8458 288.017C39.0133 288.255 23.7509 286.262 23.7211 283.496L23.6616 278.17C23.6616 279.152 25.655 280.045 29.0466 280.788C35.1159 282.068 45.7073 282.841 57.7863 282.692C69.8653 282.544 80.4567 281.502 86.4665 280.045C89.8581 279.241 91.8217 278.289 91.792 277.308Z" fill="#F5BD46" stroke="black" stroke-width="0.87606" stroke-miterlimit="10" stroke-linecap="round"/>
<path d="M26.2798 280.045L26.369 285.37" stroke="black" stroke-width="0.87606" stroke-miterlimit="10" stroke-linecap="round"/>
<path d="M89.2041 279.241L89.2934 284.566" stroke="black" stroke-width="0.87606" stroke-miterlimit="10" stroke-linecap="round"/>
<path d="M36.3647 281.859L36.454 287.184" stroke="black" stroke-width="0.87606" stroke-miterlimit="10" stroke-linecap="round"/>
<path d="M50.9434 282.781L51.0029 288.017" stroke="black" stroke-width="0.87606" stroke-miterlimit="10" stroke-linecap="round"/>
<path d="M65.4619 282.454L65.5512 287.779" stroke="black" stroke-width="0.87606" stroke-miterlimit="10" stroke-linecap="round"/>
<path d="M79.1777 281.324L79.2372 286.649" stroke="black" stroke-width="0.87606" stroke-miterlimit="10" stroke-linecap="round"/>
<path d="M89.0845 268.651C89.0845 269.632 87.1506 270.555 83.759 271.388C77.7195 272.845 67.128 273.886 55.0788 274.035C43.0295 274.184 32.3786 273.411 26.3093 272.102C22.9177 271.388 20.9541 270.495 20.9244 269.513C20.8946 266.777 36.1272 264.367 54.93 264.129C73.7328 263.891 89.0547 265.914 89.0845 268.651Z" fill="#F5BD46" stroke="black" stroke-width="0.87606" stroke-miterlimit="10" stroke-linecap="round"/>
<path d="M89.0844 268.651L89.1439 273.976C89.1737 276.713 73.941 279.122 55.1383 279.36C36.3355 279.598 21.0433 277.576 21.0136 274.839L20.9243 269.514C20.9541 270.495 22.9176 271.388 26.3093 272.102C32.3785 273.411 42.9997 274.184 55.0788 274.035C67.1578 273.887 77.7195 272.845 83.759 271.388C87.1506 270.555 89.0844 269.633 89.0844 268.651Z" fill="#F5BD46" stroke="black" stroke-width="0.87606" stroke-miterlimit="10" stroke-linecap="round"/>
<path d="M23.5723 271.388L23.6318 276.713" stroke="black" stroke-width="0.87606" stroke-miterlimit="10" stroke-linecap="round"/>
<path d="M86.4961 270.555L86.5556 275.91" stroke="black" stroke-width="0.87606" stroke-miterlimit="10" stroke-linecap="round"/>
<path d="M33.6577 273.202L33.7172 278.527" stroke="black" stroke-width="0.87606" stroke-miterlimit="10" stroke-linecap="round"/>
<path d="M48.2358 274.125L48.2953 279.331" stroke="black" stroke-width="0.87606" stroke-miterlimit="10" stroke-linecap="round"/>
<path d="M62.7549 273.797L62.8144 279.122" stroke="black" stroke-width="0.87606" stroke-miterlimit="10" stroke-linecap="round"/>
<path d="M76.4697 272.637L76.5292 277.992" stroke="black" stroke-width="0.87606" stroke-miterlimit="10" stroke-linecap="round"/>
<path d="M90.9292 261.303C90.9292 262.285 88.9656 263.236 85.6037 264.04C79.5642 265.497 68.9728 266.539 56.9235 266.687C44.8743 266.836 34.2233 266.092 28.1541 264.783C24.7624 264.04 22.7988 263.177 22.7691 262.195C22.7393 259.458 37.972 257.019 56.7748 256.781C75.5775 256.543 90.8697 258.566 90.9292 261.303Z" fill="#F5BD46" stroke="black" stroke-width="0.87606" stroke-miterlimit="10" stroke-linecap="round"/>
<path d="M90.9292 261.303L90.9887 266.628C91.0184 269.365 75.7858 271.804 56.983 272.042C38.1802 272.28 22.888 270.257 22.8285 267.52L22.769 262.195C22.7988 263.177 24.7624 264.04 28.154 264.783C34.2233 266.092 44.8445 266.866 56.9235 266.687C69.0025 266.509 79.5642 265.497 85.6037 264.04C88.9656 263.237 90.9292 262.285 90.9292 261.303Z" fill="#F5BD46" stroke="black" stroke-width="0.87606" stroke-miterlimit="10" stroke-linecap="round"/>
<path d="M25.4165 264.04L25.476 269.365" stroke="black" stroke-width="0.87606" stroke-miterlimit="10" stroke-linecap="round"/>
<path d="M88.3403 263.237L88.3998 268.562" stroke="black" stroke-width="0.87606" stroke-miterlimit="10" stroke-linecap="round"/>
<path d="M35.5024 265.854L35.5619 271.209" stroke="black" stroke-width="0.87606" stroke-miterlimit="10" stroke-linecap="round"/>
<path d="M50.0508 266.777L50.14 272.012" stroke="black" stroke-width="0.87606" stroke-miterlimit="10" stroke-linecap="round"/>
<path d="M64.5991 266.449L64.6586 271.804" stroke="black" stroke-width="0.87606" stroke-miterlimit="10" stroke-linecap="round"/>
<path d="M78.2847 265.319L78.3739 270.644" stroke="black" stroke-width="0.87606" stroke-miterlimit="10" stroke-linecap="round"/>
<path d="M88.876 253.717C88.9058 254.699 86.9422 255.621 83.5803 256.454C77.5408 257.911 66.9493 258.953 54.8703 259.101C42.7913 259.25 32.1999 258.477 26.1306 257.198C22.739 256.454 20.7456 255.561 20.7456 254.58C20.7159 251.843 35.9188 249.433 54.7513 249.195C73.5839 248.957 88.8463 250.98 88.876 253.717Z" fill="#F5BD46" stroke="black" stroke-width="0.87606" stroke-miterlimit="10" stroke-linecap="round"/>
<path d="M88.876 253.717L88.9652 259.042C88.995 261.779 73.7623 264.189 54.9595 264.427C36.1567 264.664 20.8349 262.642 20.8051 259.905L20.7456 254.58C20.7456 255.561 22.7389 256.454 26.1306 257.198C32.1998 258.477 42.821 259.25 54.8703 259.101C66.9195 258.953 77.5407 257.912 83.5802 256.454C86.9421 255.621 88.9057 254.699 88.876 253.717Z" fill="#F5BD46" stroke="black" stroke-width="0.87606" stroke-miterlimit="10" stroke-linecap="round"/>
<path d="M23.3638 256.454L23.453 261.779" stroke="black" stroke-width="0.87606" stroke-miterlimit="10" stroke-linecap="round"/>
<path d="M86.3179 255.65L86.3774 260.975" stroke="black" stroke-width="0.87606" stroke-miterlimit="10" stroke-linecap="round"/>
<path d="M33.4795 258.269L33.539 263.594" stroke="black" stroke-width="0.87606" stroke-miterlimit="10" stroke-linecap="round"/>
<path d="M48.0278 259.191L48.0873 264.397" stroke="black" stroke-width="0.87606" stroke-miterlimit="10" stroke-linecap="round"/>
<path d="M62.5464 258.863L62.6356 264.188" stroke="black" stroke-width="0.87606" stroke-miterlimit="10" stroke-linecap="round"/>
<path d="M76.2617 257.703L76.3212 263.058" stroke="black" stroke-width="0.87606" stroke-miterlimit="10" stroke-linecap="round"/>
<path d="M88.7873 246.101C88.7873 247.083 86.8534 248.005 83.4618 248.838C77.4223 250.266 66.8606 251.337 54.7816 251.486C42.7026 251.634 32.1111 250.861 26.0419 249.552C22.6205 248.838 20.6569 247.945 20.6569 246.964C20.5974 244.227 35.83 241.817 54.6626 241.579C73.4951 241.341 88.7575 243.364 88.7873 246.101Z" fill="#F5BD46" stroke="black" stroke-width="0.87606" stroke-miterlimit="10" stroke-linecap="round"/>
<path d="M88.7871 246.101L88.8466 251.426C88.8763 254.163 73.6735 256.573 54.8409 256.811C36.0084 257.049 20.746 255.026 20.7162 252.289L20.6567 246.964C20.6567 247.946 22.6203 248.838 26.0417 249.552C32.111 250.861 42.7024 251.634 54.7814 251.486C66.8604 251.337 77.4221 250.266 83.4616 248.838C86.8533 248.005 88.7871 247.083 88.7871 246.101Z" fill="#F5BD46" stroke="black" stroke-width="0.87606" stroke-miterlimit="10" stroke-linecap="round"/>
<path d="M23.2749 248.808L23.3642 254.163" stroke="black" stroke-width="0.87606" stroke-miterlimit="10" stroke-linecap="round"/>
<path d="M86.1992 248.005L86.2885 253.36" stroke="black" stroke-width="0.87606" stroke-miterlimit="10" stroke-linecap="round"/>
<path d="M33.3608 250.653L33.4501 255.978" stroke="black" stroke-width="0.87606" stroke-miterlimit="10" stroke-linecap="round"/>
<path d="M47.9385 251.545L47.998 256.781" stroke="black" stroke-width="0.87606" stroke-miterlimit="10" stroke-linecap="round"/>
<path d="M62.457 251.248L62.5165 256.573" stroke="black" stroke-width="0.87606" stroke-miterlimit="10" stroke-linecap="round"/>
<path d="M76.1729 250.088L76.2324 255.442" stroke="black" stroke-width="0.87606" stroke-miterlimit="10" stroke-linecap="round"/>
<path d="M86.1094 241.579C86.1392 242.561 84.1756 243.483 80.8137 244.316C74.7742 245.744 64.1827 246.815 52.1037 246.964C40.0247 247.113 29.4333 246.339 23.364 245.03C19.9724 244.316 17.979 243.424 17.979 242.442C17.9493 239.705 33.1522 237.296 51.9847 237.058C70.8173 236.82 86.0797 238.843 86.1094 241.579Z" fill="#F5BD46" stroke="black" stroke-width="0.87606" stroke-miterlimit="10" stroke-linecap="round"/>
<path d="M86.1094 241.579L86.1986 246.904C86.2284 249.641 70.9957 252.051 52.1929 252.289C33.3902 252.527 18.0683 250.504 18.0385 247.767L17.979 242.442C17.979 243.424 19.9723 244.316 23.364 245.03C29.4332 246.339 40.0544 247.113 52.1037 246.964C64.1529 246.815 74.7741 245.744 80.8136 244.316C84.1755 243.483 86.1391 242.561 86.1094 241.579Z" fill="#F5BD46" stroke="black" stroke-width="0.87606" stroke-miterlimit="10" stroke-linecap="round"/>
<path d="M20.6265 244.286L20.686 249.641" stroke="black" stroke-width="0.87606" stroke-miterlimit="10" stroke-linecap="round"/>
<path d="M83.5508 243.483L83.6103 248.838" stroke="black" stroke-width="0.87606" stroke-miterlimit="10" stroke-linecap="round"/>
<path d="M30.7129 246.131L30.7724 251.456" stroke="black" stroke-width="0.87606" stroke-miterlimit="10" stroke-linecap="round"/>
<path d="M45.2607 247.023L45.3202 252.259" stroke="black" stroke-width="0.87606" stroke-miterlimit="10" stroke-linecap="round"/>
<path d="M59.7798 246.726L59.869 252.051" stroke="black" stroke-width="0.87606" stroke-miterlimit="10" stroke-linecap="round"/>
<path d="M73.4946 245.566L73.5839 250.92" stroke="black" stroke-width="0.87606" stroke-miterlimit="10" stroke-linecap="round"/>
<path d="M88.46 234.231C88.4897 235.213 86.5262 236.135 83.1643 236.968C77.1248 238.396 66.5333 239.467 54.4543 239.616C42.3753 239.765 31.7839 238.991 25.7146 237.682C22.323 236.968 20.3296 236.076 20.3296 235.094C20.2999 232.357 35.5028 229.947 54.3353 229.709C73.1678 229.471 88.4302 231.494 88.46 234.231Z" fill="#F5BD46" stroke="black" stroke-width="0.87606" stroke-miterlimit="10" stroke-linecap="round"/>
<path d="M88.46 234.231L88.5492 239.556C88.579 242.293 73.3463 244.703 54.5138 244.941C35.6812 245.179 20.4188 243.156 20.3891 240.419L20.3296 235.094C20.3296 236.076 22.3229 236.968 25.7146 237.682C31.7838 238.991 42.3753 239.765 54.4543 239.616C66.5333 239.467 77.1247 238.396 83.1642 236.968C86.5261 236.135 88.4897 235.213 88.46 234.231Z" fill="#F5BD46" stroke="black" stroke-width="0.87606" stroke-miterlimit="10" stroke-linecap="round"/>
<path d="M22.9478 236.938L23.037 242.293" stroke="black" stroke-width="0.87606" stroke-miterlimit="10" stroke-linecap="round"/>
<path d="M85.8711 236.135L85.9603 241.49" stroke="black" stroke-width="0.87606" stroke-miterlimit="10" stroke-linecap="round"/>
<path d="M33.0327 238.783L33.122 244.108" stroke="black" stroke-width="0.87606" stroke-miterlimit="10" stroke-linecap="round"/>
<path d="M47.6108 239.675L47.6703 244.911" stroke="black" stroke-width="0.87606" stroke-miterlimit="10" stroke-linecap="round"/>
<path d="M62.1299 239.378L62.2191 244.703" stroke="black" stroke-width="0.87606" stroke-miterlimit="10" stroke-linecap="round"/>
<path d="M75.8447 238.218L75.9042 243.543" stroke="black" stroke-width="0.87606" stroke-miterlimit="10" stroke-linecap="round"/>
<path d="M85.7824 228.817C85.8121 229.918 83.8485 230.989 80.4867 231.881C74.4472 233.517 63.8557 234.648 51.7767 234.826C39.6977 235.005 29.1063 234.083 23.037 232.625C19.6454 231.792 17.652 230.81 17.652 229.709C17.5925 226.645 32.8252 223.968 51.6577 223.7C70.4902 223.432 85.7526 225.753 85.7824 228.817Z" fill="#F5BD46" stroke="black" stroke-width="0.87606" stroke-miterlimit="10" stroke-linecap="round"/>
<path d="M85.7822 228.817L85.8715 234.797C85.9012 237.861 70.6686 240.538 51.8658 240.776C33.063 241.014 17.7709 238.753 17.7114 235.659L17.6519 229.71C17.6519 230.81 19.6452 231.792 23.0368 232.625C29.1061 234.083 39.7273 234.975 51.7765 234.826C63.8258 234.678 74.447 233.517 80.4865 231.881C83.8484 230.989 85.812 229.918 85.7822 228.817Z" fill="#F5BD46" stroke="black" stroke-width="0.87606" stroke-miterlimit="10" stroke-linecap="round"/>
<path d="M20.2695 231.792L20.3588 237.771" stroke="black" stroke-width="0.87606" stroke-miterlimit="10" stroke-linecap="round"/>
<path d="M83.2236 230.989L83.2831 236.968" stroke="black" stroke-width="0.87606" stroke-miterlimit="10" stroke-linecap="round"/>
<path d="M30.3853 233.845L30.4448 239.824" stroke="black" stroke-width="0.87606" stroke-miterlimit="10" stroke-linecap="round"/>
<path d="M44.9341 234.886L45.0233 240.746" stroke="black" stroke-width="0.87606" stroke-miterlimit="10" stroke-linecap="round"/>
<path d="M59.4521 234.558L59.5414 240.538" stroke="black" stroke-width="0.87606" stroke-miterlimit="10" stroke-linecap="round"/>
<path d="M73.168 233.309L73.2572 239.259" stroke="black" stroke-width="0.87606" stroke-miterlimit="10" stroke-linecap="round"/>
<path d="M282.021 257.406C282.021 257.406 300.824 267.134 307.607 245.982C314.39 224.831 270.596 161.228 270.596 161.228C270.596 161.228 266.223 169.676 255.453 170.242C255.426 170.242 255.398 170.247 255.373 170.258C255.348 170.268 255.325 170.283 255.306 170.303C255.286 170.322 255.271 170.345 255.26 170.37C255.25 170.395 255.245 170.423 255.245 170.45C255.245 170.48 255.274 170.509 255.274 170.539C256.167 172.354 260.897 182.736 259.856 199.247C258.755 217.423 274.166 253.003 290.47 250.623" fill="#C4B096"/>
<path d="M282.021 257.406C282.021 257.406 300.824 267.134 307.607 245.982C314.39 224.831 270.596 161.228 270.596 161.228C270.596 161.228 266.223 169.676 255.453 170.242C255.426 170.242 255.398 170.247 255.373 170.258C255.348 170.268 255.325 170.283 255.306 170.303C255.286 170.322 255.271 170.345 255.26 170.37C255.25 170.395 255.245 170.423 255.245 170.45C255.245 170.48 255.274 170.509 255.274 170.539C256.167 172.354 260.897 182.736 259.856 199.247C258.755 217.423 274.166 253.003 290.47 250.623" stroke="black" stroke-width="1.34078" stroke-miterlimit="10" stroke-linecap="round"/>
<path d="M95.1243 103.664C98.0655 103.664 100.45 101.28 100.45 98.3387C100.45 95.3978 98.0655 93.0137 95.1243 93.0137C92.1831 93.0137 89.7988 95.3978 89.7988 98.3387C89.7988 101.28 92.1831 103.664 95.1243 103.664Z" fill="#F45D48"/>
<path d="M150.967 74.8074C153.037 74.8074 154.716 73.1292 154.716 71.059C154.716 68.9889 153.037 67.3107 150.967 67.3107C148.897 67.3107 147.218 68.9889 147.218 71.059C147.218 73.1292 148.897 74.8074 150.967 74.8074Z" fill="#F45D48"/>
<path d="M40.3994 184.911C42.2306 184.728 43.5669 183.096 43.3842 181.265C43.2014 179.434 41.5687 178.097 39.7375 178.28C37.9063 178.463 36.57 180.095 36.7528 181.926C36.9356 183.758 38.5682 185.094 40.3994 184.911Z" fill="#F45D48"/>
<path d="M126.065 257.406C126.571 261.035 133.206 261.065 135.645 259.964C136.984 259.369 136.686 256.93 135.229 256.721C133.771 256.513 132.849 256.632 131.629 256.543C130.409 256.454 129.338 256.513 128.773 255.829C127.583 254.461 125.887 256.007 126.065 257.406V257.406Z" fill="#F4DDC8"/>
<path d="M157.572 249.641C158.375 248.57 157.483 247.142 156.412 246.785C154.24 246.012 151.681 246.607 149.48 246.964C144.942 247.755 140.316 247.916 135.735 247.44C134.545 247.321 134.426 247.321 133.682 247.202C132.938 247.083 132.313 247.083 132.283 246.637C132.254 246.19 134.128 245.923 134.426 245.923C136.026 245.922 137.625 246.011 139.216 246.19C141.03 246.339 142.518 246.309 145.077 246.428C147.159 246.488 149.301 246.369 151.265 245.655C153.734 244.703 156.471 242.978 156.501 240.032C156.531 238.307 154.656 236.701 152.931 237.325C151.205 237.95 150.283 239.378 148.617 239.913C146.951 240.449 144.392 240.627 142.28 240.598C140.16 240.597 138.042 240.448 135.943 240.151C134.188 239.884 132.373 239.467 130.558 239.318C130.409 239.08 132.76 231.197 133.384 227.211C134.009 223.224 134.128 218.792 131.242 216.025C130.617 215.4 128.743 214.419 127.88 214.746C127.018 215.073 126.601 215.549 126.333 216.471C126.065 217.394 127.256 219.268 127.702 220.309C128.446 222.094 128.624 224.057 128.565 225.991C128.446 230.423 126.482 234.856 125.143 239.051C123.804 243.245 122.823 247.708 123.299 252.2C123.507 253.957 124.009 255.667 124.786 257.257C125.086 257.856 125.445 258.424 125.857 258.953C126.117 259.331 126.427 259.671 126.78 259.964C127.131 260.182 127.499 260.371 127.88 260.529C128.267 260.678 135.675 262.433 136.597 262.701C139.224 263.399 141.916 263.818 144.63 263.95C146.921 264.069 149.45 264.159 151.652 263.415C153.853 262.671 155.846 260.797 154.686 258.358C154.602 258.176 154.48 258.014 154.329 257.882L154.746 257.614C156.025 256.781 156.471 255.799 156.918 254.431C157.077 253.967 157.063 253.46 156.877 253.006C156.691 252.552 156.346 252.18 155.906 251.962C155.817 251.917 155.748 251.839 155.715 251.745C155.682 251.65 155.686 251.547 155.727 251.456C155.739 251.418 155.758 251.382 155.784 251.352C155.809 251.321 155.841 251.296 155.876 251.277C156.526 250.826 157.098 250.274 157.572 249.641V249.641ZM137.639 253.628V253.449C138.621 253.598 139.602 253.687 140.584 253.747L137.639 253.628ZM144.095 253.836C145.612 253.806 147.129 253.687 148.647 253.509C147.146 253.781 145.619 253.891 144.095 253.836Z" fill="#F4DDC8"/>
<path d="M126.541 239.646C126.541 239.646 120.442 251.813 127.701 259.637" stroke="black" stroke-width="1.34078" stroke-miterlimit="10" stroke-linecap="round"/>
<path d="M127.613 236.671C127.613 236.671 130.974 221.648 126.542 217.007" stroke="black" stroke-width="1.34078" stroke-miterlimit="10" stroke-linecap="round"/>
<path d="M129.725 241.996C129.725 241.996 145.79 245.804 154.24 240.3" stroke="black" stroke-width="1.34078" stroke-miterlimit="10" stroke-linecap="round"/>
<path d="M130.23 249.314C130.23 249.314 145.88 254.401 155.192 248.035" stroke="black" stroke-width="1.34078" stroke-miterlimit="10" stroke-linecap="round"/>
<path d="M131.034 254.639C131.034 254.639 147.308 258.893 151.979 254.014" stroke="black" stroke-width="1.34078" stroke-miterlimit="10" stroke-linecap="round"/>
<path d="M133.533 259.637C133.533 259.637 145.582 262.909 150.432 259.637" stroke="black" stroke-width="1.34078" stroke-miterlimit="10" stroke-linecap="round"/>
<path d="M249.712 167.862C249.712 167.862 239.507 180.178 246.469 196.569C253.431 212.961 238.406 208.469 239.894 219.089" stroke="black" stroke-width="1.34078" stroke-miterlimit="10" stroke-linecap="round"/>
<path d="M213.088 132.937C213.088 132.937 200.324 134.751 201.99 151.589" stroke="black" stroke-width="1.34078" stroke-miterlimit="10" stroke-linecap="round"/>
<path d="M209.458 179.583C209.458 179.583 214.337 186.931 196.397 196.153" stroke="black" stroke-width="1.34078" stroke-miterlimit="10" stroke-linecap="round"/>
<path d="M252.508 173.633C252.508 173.633 245.427 184.015 253.103 194.398" stroke="black" stroke-width="1.34078" stroke-miterlimit="10" stroke-linecap="round"/>
<path d="M178.784 189.4C178.784 189.4 180.063 184.164 190 179.285C199.937 174.407 198.777 165.601 198.777 165.601" stroke="black" stroke-width="1.34078" stroke-miterlimit="10" stroke-linecap="round"/>
<path d="M269.288 164.113C269.288 164.113 288.686 191.393 298.92 211.533C298.92 211.533 286.931 185.89 270.597 162.418L269.288 164.113Z" fill="white"/>
</g>
<defs>
<clipPath id="clip0_107_51639">
<rect width="304.266" height="268.156" fill="white" transform="translate(4.71045 20.724)"/>
</clipPath>
</defs>
</svg>
