<svg width="31" height="31" viewBox="0 0 31 31" fill="none" xmlns="http://www.w3.org/2000/svg">
<path fill-rule="evenodd" clip-rule="evenodd" d="M7.99692 26.7547H5.49588C4.80534 26.7544 4.24561 26.1947 4.24536 25.5041V18.001C4.24561 17.3105 4.80534 16.7507 5.49588 16.7505H7.99692C8.68746 16.7507 9.2472 17.3105 9.24744 18.001V25.5041C9.2472 26.1947 8.68746 26.7544 7.99692 26.7547V26.7547Z" stroke="#F4D86C" stroke-width="2" stroke-linecap="round" stroke-linejoin="round"/>
<path d="M16.7506 21.7526H19.2016C19.7428 21.7529 20.2694 21.5774 20.7022 21.2524L23.7235 18.9865C24.4778 18.4212 25.5329 18.4963 26.1995 19.1628V19.1628C26.555 19.5178 26.7547 19.9997 26.7547 20.5021C26.7547 21.0045 26.555 21.4863 26.1995 21.8414L23.6072 24.4337C22.9087 25.1318 22.0194 25.6078 21.0511 25.8018L17.3871 26.5346C16.6607 26.6799 15.911 26.6619 15.1924 26.4821L11.8785 25.6542C11.4824 25.5544 11.0753 25.504 10.6668 25.5042H9.24744" stroke="#F4D86C" stroke-width="2" stroke-linecap="round" stroke-linejoin="round"/>
<path d="M16.7506 21.7526H18.6076C19.1101 21.7527 19.592 21.5531 19.9474 21.1978C20.3027 20.8425 20.5022 20.3605 20.5021 19.858V19.4791C20.5023 18.6101 19.9109 17.8526 19.0678 17.6421L16.2016 16.9256C15.7357 16.8093 15.2574 16.7505 14.7772 16.7505V16.7505C13.6177 16.7501 12.4841 17.0935 11.5196 17.7371L9.24744 19.2515" stroke="#F4D86C" stroke-width="2" stroke-linecap="round" stroke-linejoin="round"/>
<path d="M24.5885 8.91262C25.8094 10.1335 25.8094 12.113 24.5885 13.3339C23.3676 14.5548 21.3882 14.5548 20.1673 13.3339C18.9464 12.113 18.9464 10.1335 20.1673 8.91262C20.7536 8.32633 21.5487 7.99695 22.3779 7.99695C23.207 7.99695 24.0022 8.32633 24.5885 8.91262" stroke="#F4D86C" stroke-width="2" stroke-linecap="round" stroke-linejoin="round"/>
<path fill-rule="evenodd" clip-rule="evenodd" d="M8.90236 7.79384C8.32384 7.21532 8.32384 6.27736 8.90236 5.69884L11.3263 3.27494C11.9048 2.69642 12.8427 2.69642 13.4213 3.27494L15.8452 5.69884C16.4237 6.27736 16.4237 7.21532 15.8452 7.79384L13.4213 10.2177C12.8427 10.7963 11.9048 10.7963 11.3263 10.2177L8.90236 7.79384Z" stroke="#F4D86C" stroke-width="2" stroke-linecap="round" stroke-linejoin="round"/>
</svg>
