<svg width="28" height="32" viewBox="0 0 28 32" fill="none" xmlns="http://www.w3.org/2000/svg">
<path fill-rule="evenodd" clip-rule="evenodd" d="M22.7443 8.7103V11.1381C25.4713 11.9893 27.4583 14.458 27.4583 17.4066V25.2234C27.4583 28.8737 24.432 31.8333 20.701 31.8333H7.30056C3.56794 31.8333 0.541626 28.8737 0.541626 25.2234V17.4066C0.541626 14.458 2.53021 11.9893 5.25566 11.1381V8.7103C5.27175 3.99004 9.18135 0.166626 13.9758 0.166626C18.8347 0.166626 22.7443 3.99004 22.7443 8.7103ZM14.0079 2.9202C17.2739 2.9202 19.9286 5.51634 19.9286 8.71039V10.7967H8.07108V8.67892C8.08717 5.50061 10.7418 2.9202 14.0079 2.9202ZM15.4077 23.0536C15.4077 23.8246 14.7802 24.4382 13.9919 24.4382C13.2196 24.4382 12.5922 23.8246 12.5922 23.0536V19.5606C12.5922 18.8054 13.2196 18.1918 13.9919 18.1918C14.7802 18.1918 15.4077 18.8054 15.4077 19.5606V23.0536Z" fill="#F4D86C"/>
</svg>
