<svg width="38" height="38" viewBox="0 0 38 38" fill="none" xmlns="http://www.w3.org/2000/svg">
<rect x="2" y="2" width="34" height="34" rx="17" fill="#1D1A49"/>
<path d="M14.8243 25H24.0763V22.822H18.5863L21.4123 20.518C22.9963 19.24 24.0043 18.106 24.0043 16.252C24.0043 13.894 22.4023 12.292 19.4503 12.292C16.5703 12.292 14.7883 14.128 14.7883 16.504V16.864H17.3983V16.666C17.3983 15.298 18.2263 14.47 19.4323 14.47C20.5843 14.47 21.3943 15.118 21.3943 16.36C21.3943 17.386 20.7103 18.142 19.6123 19.042L14.8243 23.002V25Z" fill="#F3D450"/>
<rect x="2" y="2" width="34" height="34" rx="17" stroke="#CCCBD0" stroke-width="3"/>
</svg>
