<svg width="16" height="16" viewBox="0 0 16 16" fill="none" xmlns="http://www.w3.org/2000/svg">
<path fill-rule="evenodd" clip-rule="evenodd" d="M7.04768 8.95331C6.07268 7.97831 5.33768 6.88664 4.84935 5.77914C4.74602 5.54497 4.80685 5.27081 4.98768 5.08997L5.67018 4.40831C6.22935 3.84914 6.22935 3.05831 5.74102 2.56997L4.76268 1.59164C4.11185 0.940807 3.05685 0.940807 2.40602 1.59164L1.86268 2.13497C1.24518 2.75247 0.987683 3.64331 1.15435 4.52664C1.56602 6.70414 2.83102 9.08831 4.87185 11.1291C6.91268 13.17 9.29685 14.435 11.4744 14.8466C12.3577 15.0133 13.2485 14.7558 13.866 14.1383L14.4085 13.5958C15.0594 12.945 15.0594 11.89 14.4085 11.2391L13.431 10.2616C12.9427 9.77331 12.151 9.77331 11.6635 10.2616L10.911 11.015C10.7302 11.1958 10.456 11.2566 10.2219 11.1533C9.11435 10.6641 8.02268 9.92831 7.04768 8.95331Z" stroke="#B3966D" stroke-width="1.5" stroke-linecap="round" stroke-linejoin="round"/>
</svg>
