<svg width="441" height="619" viewBox="0 0 441 619" fill="none" xmlns="http://www.w3.org/2000/svg">
<g style="mix-blend-mode:soft-light" opacity="0.45">
<path d="M325.506 234.874C307.921 296.031 320.594 283.429 343.163 237.579C352.49 205.683 309.986 168.519 342.949 140.326C347.933 131.569 365.661 130.002 363.525 143.031C359.111 150.863 348.431 155.491 348.075 165.956C349.072 194.648 374.703 222.486 356.619 250.394C347.791 266.057 330.49 290.833 360.392 268.193C395.919 232.738 400.191 176.849 424.397 133.989C421.193 112.417 377.693 94.4758 392.573 71.7644C407.239 64.5025 417.562 103.589 432.229 112.132C465.833 86.5731 433.653 40.7943 405.744 18.5813C418.274 -34.6731 484.914 79.9519 464.124 105.867C463.768 114.909 449.173 128.863 453.872 134.915C471.03 130.999 493.457 130.928 501.716 112.204C504.777 72.0492 533.327 75.965 519.871 114.695C489.256 174.215 442.837 114.767 420.837 203.548C415.355 222.058 400.333 242.705 396.489 258.653C418.274 265.061 439.775 218.926 455.652 241.068C435.148 276.879 383.175 268.264 354.056 294.464C336.827 296.244 302.866 356.476 336.115 334.975C365.376 302.296 416.21 312.05 454.442 320.38C475.302 326.431 405.032 370.288 397.058 375.628C369.861 398.552 324.296 364.521 319.17 379.401C334.192 418.06 291.333 441.199 281.721 476.227C282.789 497.087 257.301 505.061 243.631 491.32C238.434 479.573 236.512 466.9 228.538 456.292C220.706 434.221 189.452 416.067 200.843 391.647C213.373 353.842 155.776 398.481 129.006 377.621C104.159 364.948 83.0141 343.874 62.2961 325.791C64.788 314.542 85.2923 316.749 94.7613 314.257C122.67 310.839 155.278 309.131 178.416 327.926C183.044 331.486 194.791 347.861 198.778 337.538C198.992 305.073 161.258 292.613 138.831 276.523C115.123 272.394 79.0983 263.281 69.9853 238.576C77.3896 213.657 151.575 298.594 119.537 238.362C104.444 210.81 100.671 173.432 79.4543 150.792C61.7266 145.381 41.6494 146.021 26.2711 134.701C11.32 126.015 -6.97725 88.4954 14.1679 80.3079C40.0831 102.806 6.12273 125.09 74.4706 133.206C70.4836 114.767 54.607 84.9356 66.3543 60.7291C74.3994 40.5807 98.2499 -5.19808 123.524 8.25789C131.854 26.5552 100.955 34.7427 93.9782 49.409C78.6711 66.7807 82.4445 91.4144 91.6999 110.851C97.894 111.919 102.379 96.0421 109.143 92.34C115.55 79.7383 151.647 73.1171 136.411 93.6215C122.172 99.4595 115.835 114.553 112.845 128.721C100.03 147.089 155.99 279.656 172.934 265.417C136.838 221.774 201.84 181.833 167.31 148.229C162.967 145.31 163.252 137.264 168.093 135.129C195.859 133.491 201.982 174.357 190.448 194.719C171.866 224.621 182.973 255.022 205.257 279.442C211.949 259.365 189.024 204.188 222.059 196.57C233.949 199.774 224.551 210.525 224.409 218C220.635 255.164 222.629 297.455 246.052 323.37C255.735 319.668 278.304 329.991 279.656 316.25C279.514 312.477 282.006 307.778 286.135 307.92C299.734 297.099 296.245 272.679 301.656 256.873C307.921 245.339 309.06 232.239 305.287 219.495C311.481 199.347 329.422 221.489 325.506 234.874Z" fill="white"/>
<path d="M367.369 546.568C372.567 575.118 341.597 587.292 324.367 603.311C306.782 620.327 294.465 645.103 269.333 654.145C267.055 605.661 165.387 597.402 170.869 535.32C223.269 428.099 181.905 402.824 244.059 506.485C263.566 513.32 290.621 510.116 289.481 484.415C297.74 469.962 307.565 439.348 319.668 435.005C328.924 474.661 353.629 509.333 367.369 546.568Z" fill="white"/>
</g>
</svg>
