<svg width="297" height="287" viewBox="0 0 297 287" fill="none" xmlns="http://www.w3.org/2000/svg">
<g filter="url(#filter0_d_430_64451)">
<path fill-rule="evenodd" clip-rule="evenodd" d="M7.47547 192.305C58.7202 244.582 143.596 242.832 198.65 186.668C253.704 130.504 255.42 43.918 204.175 -8.35951C196.186 -16.51 145.676 21.8029 91.3593 77.2148C37.0421 132.627 -0.513985 184.154 7.47547 192.305ZM64.1298 221.861C108.481 234.448 159.276 221.917 196.239 184.208C233.203 146.5 245.486 94.682 233.148 49.4365C240.296 91.5421 225.227 139.879 189.006 176.829C152.785 213.78 105.404 229.153 64.1298 221.861ZM186.595 174.37C148.708 213.02 98.589 227.344 56.7247 216.5C95.7528 221.973 142.45 204.647 179.362 166.991C216.274 129.335 233.257 81.6968 227.893 41.8822C238.522 84.5902 224.482 135.719 186.595 174.37ZM49.4287 211.411C88.5856 220.496 138.011 204.255 176.951 164.531C215.89 124.807 231.809 74.3852 222.904 34.4391C223.886 44.754 223.148 55.7928 220.778 67.1609C214.561 96.9733 197.104 129.214 169.718 157.152C142.332 185.091 110.727 202.9 81.504 209.241C70.3605 211.66 59.5398 212.412 49.4287 211.411ZM81.0057 205.714C67.2742 208.694 54.1742 209.051 42.4048 206.689C52.411 207.182 63.379 205.645 74.8165 202.251C102.253 194.109 132.728 175.21 160.074 147.314C187.419 119.418 205.944 88.3277 213.925 60.3387C217.252 48.6707 218.759 37.4816 218.276 27.2737C220.591 39.2803 220.241 52.6444 217.32 66.6526C211.276 95.6386 194.238 127.219 167.307 154.693C140.376 182.167 109.419 199.548 81.0057 205.714ZM35.8654 202.368C47.0956 204.172 60.0896 202.935 74.0543 198.791C100.764 190.864 130.691 172.37 157.663 144.854C184.635 117.339 202.764 86.8096 210.533 59.5611C214.596 45.3149 215.808 32.059 214.04 20.6025C213.895 30.5038 211.464 41.6922 207.058 53.527C197.32 79.6804 177.736 109.619 150.43 137.476C123.123 165.332 93.7762 185.311 68.1394 195.245C56.5384 199.74 45.5711 202.22 35.8654 202.368ZM67.0925 191.883C52.9221 197.374 40.1881 199.62 29.756 198.479C38.8858 197.571 49.6855 194.017 61.4706 188.222C85.2978 176.507 113.515 155.457 140.785 127.637C168.056 99.8171 188.69 71.0312 200.174 46.7238C205.854 34.7012 209.338 23.6838 210.228 14.3701C211.347 25.0124 209.144 38.003 203.762 52.459C194.258 77.9823 175.029 107.461 148.018 135.016C121.008 162.571 92.1116 182.188 67.0925 191.883ZM24.1205 195.075C25.7817 195.141 27.5416 195.087 29.3975 194.913C37.9957 194.107 48.4472 190.732 60.1225 184.992C83.4607 173.517 111.328 152.769 138.374 125.177C165.421 97.5855 185.759 69.157 197.007 45.3485C202.634 33.4379 205.942 22.7758 206.732 14.0043C206.903 12.111 206.956 10.3156 206.891 8.62098C206.76 9.25192 206.614 9.8919 206.452 10.54C204.417 18.6932 199.871 28.7101 193.27 39.9254C180.055 62.3799 158.378 90.0133 131.141 117.799C103.905 145.584 76.8174 167.698 54.8065 181.18C43.8128 187.913 33.9937 192.551 26.0016 194.627C25.3663 194.792 24.739 194.942 24.1205 195.075ZM25.3604 191.133C21.7135 192.081 18.6575 192.411 16.1687 192.193C34.4942 185.524 76.1347 151.777 120.292 106.73C164.449 61.6834 197.528 19.2037 204.066 0.508928C204.28 3.04786 203.956 6.16549 203.027 9.88583C201.121 17.5246 196.782 27.1709 190.271 38.2332C177.264 60.3337 155.811 87.7124 128.73 115.339C101.649 142.966 74.8117 164.851 53.1477 178.12C42.304 184.762 32.8482 189.188 25.3604 191.133ZM199.59 -5.73504C200.977 -5.96667 201.473 -5.77269 201.583 -5.71488C201.64 -5.60264 201.83 -5.09705 201.603 -3.68128C201.318 -1.90299 200.468 0.611733 198.914 3.88856C195.823 10.4025 190.348 19.1068 182.813 29.4446C167.779 50.0725 144.947 76.6586 117.881 104.271C90.814 131.883 64.7532 155.174 44.5328 170.512C34.3992 178.199 25.8668 183.784 19.4816 186.937C16.2695 188.522 13.8044 189.389 12.0613 189.68C10.6735 189.912 10.1779 189.718 10.0679 189.66C10.0112 189.548 9.82105 189.042 10.0481 187.626C10.3333 185.848 11.1829 183.333 12.7373 180.057C15.8274 173.543 21.3028 164.838 28.8376 154.5C43.8723 133.873 66.7037 107.287 93.7703 79.6744C120.837 52.0623 146.898 28.7708 167.118 13.4331C177.252 5.74646 185.784 0.160784 192.169 -2.99159C195.381 -4.57739 197.846 -5.44412 199.59 -5.73504Z" fill="url(#paint0_linear_430_64451)"/>
<path fill-rule="evenodd" clip-rule="evenodd" d="M-7.1753 177.359C-58.42 125.082 -56.7042 38.4957 -1.65003 -17.668C53.4041 -73.8317 138.28 -75.5821 189.525 -23.3046C197.514 -15.1541 159.958 36.3733 105.641 91.7852C51.3237 147.197 0.814156 185.51 -7.1753 177.359ZM-36.148 119.563C-48.486 74.3179 -36.2026 22.5002 0.761004 -15.2084C37.7246 -52.9169 88.5187 -65.4479 132.87 -52.8612C91.5966 -60.1534 44.2148 -44.7802 7.9941 -7.8295C-28.2266 29.1212 -43.2962 77.4578 -36.148 119.563ZM10.4051 -5.36988C-27.4819 33.2807 -41.5221 84.4097 -30.8931 127.118C-36.2573 87.3031 -19.2734 39.6645 17.6382 2.00899C54.5499 -35.6465 101.247 -52.9727 140.276 -47.5004C98.4112 -58.3437 48.2921 -44.0204 10.4051 -5.36988ZM-25.904 134.561C-34.8093 94.6147 -18.8901 44.1927 20.0493 4.46861C58.9886 -35.2555 108.415 -51.4956 147.572 -42.4107C137.46 -43.4125 126.64 -42.6595 115.496 -40.2413C86.2727 -33.8996 54.6685 -16.0906 27.2823 11.8475C-0.103829 39.7856 -17.561 72.0267 -23.7774 101.839C-26.1479 113.207 -26.8859 124.246 -25.904 134.561ZM-20.3196 102.347C-23.2405 116.356 -23.5905 129.72 -21.2755 141.726C-21.7585 131.518 -20.2519 120.329 -16.9248 108.661C-8.94373 80.6723 9.58118 49.5823 36.9265 21.686C64.2718 -6.21043 94.7475 -25.1087 122.184 -33.2506C133.621 -36.6448 144.589 -38.1817 154.595 -37.6889C142.826 -40.0506 129.726 -39.6936 115.994 -36.7138C87.5811 -30.5479 56.6244 -13.1667 29.6934 14.3071C2.76237 41.7808 -14.2755 73.3614 -20.3196 102.347ZM-17.0397 148.397C-18.8079 136.941 -17.5956 123.685 -13.5333 109.439C-5.76343 82.1904 12.3656 51.661 39.3375 24.1456C66.3094 -3.3699 96.2356 -21.8643 122.946 -29.7908C136.911 -33.9349 149.905 -35.1717 161.135 -33.3678C151.429 -33.2196 140.462 -30.7405 128.861 -26.2451C103.224 -16.3108 73.8772 3.6675 46.5706 31.5244C19.264 59.3814 -0.319672 89.3195 -10.0577 115.473C-14.4643 127.308 -16.8944 138.496 -17.0397 148.397ZM-6.76157 116.541C-12.1442 130.997 -14.3465 143.988 -13.2276 154.63C-12.3381 145.316 -8.85347 134.299 -3.17352 122.276C8.31031 97.9688 28.9444 69.1829 56.2147 41.3629C83.4851 13.543 111.702 -7.50691 135.53 -19.2222C147.315 -25.0166 158.114 -28.5714 167.244 -29.4789C156.812 -30.6204 144.078 -28.3736 129.908 -22.8825C104.889 -13.1876 75.9922 6.42913 48.9816 33.9841C21.9711 61.539 2.74185 91.0176 -6.76157 116.541ZM-9.89113 160.379C-9.95548 158.684 -9.90274 156.889 -9.73223 154.996C-8.94226 146.224 -5.63398 135.562 -0.00690892 123.651C11.2412 99.8429 31.5789 71.4145 58.6258 43.8225C85.6726 16.2306 113.539 -4.51696 136.878 -15.9918C148.553 -21.7322 159.004 -25.1072 167.603 -25.9131C169.459 -26.087 171.218 -26.1408 172.88 -26.0752C172.261 -25.9416 171.634 -25.7919 170.999 -25.6268C163.006 -23.5507 153.187 -18.9134 142.194 -12.1798C120.183 1.30194 93.0952 23.4161 65.8588 51.2014C38.6225 78.9867 16.9451 106.62 3.72977 129.075C-2.87085 140.29 -7.4165 150.307 -9.45165 158.46C-9.61343 159.108 -9.76015 159.748 -9.89113 160.379ZM-6.02718 159.114C-6.95583 162.834 -7.27939 165.952 -7.06626 168.491C-0.528249 149.796 32.5516 107.317 76.7085 62.2697C120.865 17.2229 162.506 -16.5236 180.831 -23.1934C178.343 -23.4108 175.287 -23.0807 171.64 -22.1334C164.152 -20.1882 154.696 -15.7623 143.852 -9.12046C122.188 4.14875 95.3507 26.0345 68.2699 53.661C41.1891 81.2876 19.7357 108.666 6.72865 130.767C0.218053 141.829 -4.12045 151.475 -6.02718 159.114ZM186.952 -18.6264C187.179 -20.0422 186.989 -20.5477 186.932 -20.66C186.822 -20.7178 186.327 -20.9118 184.939 -20.6801C183.196 -20.3892 180.731 -19.5225 177.519 -17.9367C171.133 -14.7843 162.601 -9.19864 152.467 -1.51202C132.247 13.8257 106.186 37.1172 79.1195 64.7293C52.0529 92.3414 29.2215 118.927 14.1868 139.555C6.65202 149.893 1.17667 158.598 -1.91344 165.111C-3.46792 168.388 -4.31751 170.903 -4.60269 172.681C-4.82972 174.097 -4.63958 174.603 -4.58293 174.715C-4.47289 174.773 -3.97728 174.967 -2.58949 174.735C-0.846341 174.444 1.61869 173.577 4.8308 171.992C11.216 168.839 19.7484 163.253 29.882 155.567C50.1024 140.229 76.1632 116.938 103.23 89.3255C130.296 61.7134 153.128 35.1274 168.163 14.4995C175.697 4.1617 181.173 -4.54265 184.263 -11.0565C185.817 -14.3334 186.667 -16.8481 186.952 -18.6264Z" fill="url(#paint1_linear_430_64451)"/>
</g>
<defs>
<filter id="filter0_d_430_64451" x="-48.321" y="-61.1989" width="293.642" height="299.398" filterUnits="userSpaceOnUse" color-interpolation-filters="sRGB">
<feFlood flood-opacity="0" result="BackgroundImageFix"/>
<feColorMatrix in="SourceAlpha" type="matrix" values="0 0 0 0 0 0 0 0 0 0 0 0 0 0 0 0 0 0 127 0" result="hardAlpha"/>
<feOffset dy="4"/>
<feGaussianBlur stdDeviation="2"/>
<feComposite in2="hardAlpha" operator="out"/>
<feColorMatrix type="matrix" values="0 0 0 0 0 0 0 0 0 0 0 0 0 0 0 0 0 0 0.25 0"/>
<feBlend mode="normal" in2="BackgroundImageFix" result="effect1_dropShadow_430_64451"/>
<feBlend mode="normal" in="SourceGraphic" in2="effect1_dropShadow_430_64451" result="shape"/>
</filter>
<linearGradient id="paint0_linear_430_64451" x1="210.185" y1="186.123" x2="83.7528" y2="74.9465" gradientUnits="userSpaceOnUse">
<stop stop-color="white"/>
<stop offset="1" stop-color="white" stop-opacity="0"/>
</linearGradient>
<linearGradient id="paint1_linear_430_64451" x1="-19.9998" y1="-33.7904" x2="113.121" y2="94.5042" gradientUnits="userSpaceOnUse">
<stop stop-color="white"/>
<stop offset="1" stop-color="white" stop-opacity="0"/>
</linearGradient>
</defs>
</svg>
