<svg width="379" height="446" viewBox="0 0 379 446" fill="none" xmlns="http://www.w3.org/2000/svg">
<path fill-rule="evenodd" clip-rule="evenodd" d="M-72.425 297.825C7.47542 379.335 139.813 376.606 225.653 289.036C311.493 201.466 314.169 66.4614 234.268 -15.0493C221.811 -27.7575 143.057 31.9798 58.366 118.378C-26.325 204.775 -84.8821 285.117 -72.425 297.825ZM15.91 343.909C85.0629 363.534 164.261 343.996 221.894 285.201C279.527 226.406 298.68 145.612 279.442 75.0658C290.588 140.717 267.091 216.083 210.616 273.696C154.141 331.309 80.2638 355.279 15.91 343.909ZM206.857 269.861C147.784 330.125 69.6386 352.457 4.36404 335.551C65.2164 344.083 138.027 317.068 195.579 258.356C253.132 199.644 279.613 125.366 271.249 63.2872C287.822 129.877 265.93 209.597 206.857 269.861ZM-7.01186 327.615C54.0414 341.78 131.106 316.459 191.82 254.521C252.534 192.583 277.355 113.966 263.47 51.682C265.001 67.765 263.85 84.9766 260.154 102.702C250.462 149.185 223.242 199.455 180.542 243.016C137.842 286.577 88.5647 314.344 42.9998 324.232C25.6249 328.003 8.75338 329.177 -7.01186 327.615ZM42.2228 318.732C20.8128 323.378 0.387334 323.935 -17.9634 320.253C-2.36183 321.021 14.7394 318.625 32.5727 313.333C75.3509 300.638 122.868 271.172 165.505 227.676C208.142 184.18 237.026 135.705 249.47 92.0644C254.657 73.8718 257.006 56.4258 256.253 40.5098C259.863 59.2304 259.317 80.0676 254.763 101.909C245.339 147.104 218.773 196.344 176.783 239.181C134.792 282.018 86.5248 309.118 42.2228 318.732ZM-28.1596 313.515C-10.6496 316.328 9.61055 314.4 31.3842 307.938C73.0306 295.579 119.691 266.743 161.746 223.841C203.8 180.939 232.067 133.338 244.182 90.852C250.516 68.6395 252.406 47.971 249.649 30.1081C249.422 45.5462 245.633 62.991 238.762 81.4438C223.579 122.222 193.044 168.901 150.468 212.336C107.892 255.77 62.1345 286.92 22.1618 302.41C4.07362 309.419 -13.0265 313.284 -28.1596 313.515ZM20.5295 297.167C-1.56495 305.728 -21.4197 309.231 -37.6853 307.452C-23.4503 306.037 -6.61135 300.494 11.7638 291.46C48.915 273.193 92.9112 240.372 135.431 196.996C177.951 153.619 210.123 108.736 228.029 70.8362C236.885 52.0907 242.318 34.9125 243.705 20.3905C245.45 36.9839 242.016 57.2388 233.623 79.7785C218.805 119.574 188.823 165.537 146.709 208.501C104.594 251.464 59.5391 282.05 20.5295 297.167ZM-46.4722 302.145C-43.8821 302.247 -41.138 302.163 -38.2443 301.892C-24.8381 300.635 -8.54219 295.373 9.66191 286.423C46.0506 268.531 89.5004 236.182 131.672 193.161C173.843 150.139 205.553 105.814 223.091 68.6919C231.865 50.121 237.023 33.4966 238.255 19.8203C238.521 16.8682 238.603 14.0688 238.503 11.4266C238.299 12.4103 238.07 13.4082 237.817 14.4187C234.644 27.1311 227.557 42.7495 217.265 60.2362C196.66 95.2471 162.861 138.333 120.394 181.656C77.9271 224.978 35.6925 259.458 1.37323 280.479C-15.7681 290.978 -31.0779 298.208 -43.5392 301.446C-44.5297 301.703 -45.5078 301.936 -46.4722 302.145ZM-44.539 295.999C-50.2251 297.476 -54.9901 297.99 -58.8706 297.651C-30.2976 287.252 34.628 234.635 103.477 164.398C172.326 94.1612 223.904 27.9271 234.098 -1.22167C234.431 2.73701 233.926 7.59798 232.478 13.3987C229.505 25.309 222.741 40.3495 212.589 57.5977C192.309 92.0568 158.859 134.745 116.635 177.82C74.4104 220.896 32.5652 255.02 -1.21313 275.709C-18.1206 286.065 -32.864 292.966 -44.539 295.999ZM227.118 -10.9573C229.282 -11.3184 230.055 -11.016 230.226 -10.9258C230.315 -10.7508 230.611 -9.96248 230.257 -7.75504C229.812 -4.98236 228.488 -1.06141 226.064 4.04781C221.246 14.2042 212.709 27.776 200.961 43.8947C177.519 76.0575 141.92 117.51 99.7179 160.563C57.5159 203.615 16.882 239.931 -14.6455 263.846C-30.4457 275.831 -43.7494 284.54 -53.7052 289.455C-58.7135 291.928 -62.5569 293.279 -65.2748 293.733C-67.4387 294.094 -68.2114 293.791 -68.383 293.701C-68.4713 293.526 -68.7678 292.738 -68.4138 290.531C-67.9692 287.758 -66.6445 283.837 -64.2207 278.728C-59.4027 268.571 -50.8655 254.999 -39.1174 238.881C-15.6753 206.718 19.9232 165.265 62.1253 122.213C104.327 79.1601 144.961 42.8441 176.489 18.9296C192.289 6.94465 205.593 -1.76452 215.548 -6.67968C220.557 -9.15227 224.4 -10.5037 227.118 -10.9573Z" fill="url(#paint0_linear_529_59234)"/>
<path fill-rule="evenodd" clip-rule="evenodd" d="M-95.2684 274.523C-175.169 193.012 -172.493 58.0071 -86.6534 -29.563C-0.8133 -117.133 131.524 -119.862 211.425 -38.3516C223.882 -25.6434 165.325 54.6978 80.6338 141.096C-4.05715 227.493 -82.8113 287.231 -95.2684 274.523ZM-140.442 184.407C-159.68 113.861 -140.528 33.067 -82.8941 -25.7279C-25.2607 -84.5229 53.9371 -104.061 123.09 -84.4359C58.7362 -95.806 -15.1412 -71.8361 -71.6163 -14.2229C-128.091 43.3904 -151.588 118.757 -140.442 184.407ZM-67.8571 -10.3878C-126.93 49.8758 -148.822 129.596 -132.249 196.186C-140.613 134.107 -114.132 59.8295 -56.5793 1.11723C0.973107 -57.595 73.7836 -84.6098 134.636 -76.0775C69.3613 -92.9842 -8.78388 -70.6515 -67.8571 -10.3878ZM-124.47 207.791C-138.355 145.507 -113.534 66.8899 -52.82 4.95225C7.89403 -56.9854 84.9586 -82.3068 146.012 -68.1417C130.247 -69.7036 113.375 -68.5296 96.0001 -64.7592C50.4352 -54.8713 1.15812 -27.1036 -41.5422 16.4573C-84.2426 60.0182 -111.462 110.288 -121.154 156.772C-124.85 174.497 -126.001 191.708 -124.47 207.791ZM-115.763 157.564C-120.317 179.406 -120.863 200.243 -117.253 218.963C-118.006 203.047 -115.657 185.601 -110.47 167.409C-98.0257 123.768 -69.1418 75.2933 -26.5052 31.7974C16.1314 -11.6984 63.649 -41.1645 106.427 -53.8593C124.26 -59.1514 141.362 -61.5478 156.963 -60.7795C138.613 -64.4618 118.187 -63.9051 96.7771 -59.259C52.4751 -49.6452 4.2077 -22.5446 -37.783 20.2924C-79.7736 63.1293 -106.339 112.369 -115.763 157.564ZM-110.649 229.365C-113.406 211.502 -111.516 190.834 -105.182 168.621C-93.067 126.136 -64.8003 78.5344 -22.7459 35.6325C19.3085 -7.26949 65.9693 -36.1058 107.616 -48.4647C129.389 -54.9263 149.65 -56.8546 167.16 -54.042C152.026 -53.8109 134.926 -49.9456 116.838 -42.9364C76.8654 -27.4469 31.1082 3.70318 -11.4681 47.1375C-54.0444 90.5719 -84.5791 137.251 -99.7626 178.03C-106.633 196.482 -110.422 213.927 -110.649 229.365ZM-94.6233 179.695C-103.016 202.234 -106.45 222.489 -104.705 239.083C-103.318 224.561 -97.8849 207.383 -89.0288 188.637C-71.1233 150.737 -38.9508 105.854 3.56894 62.4776C46.0887 19.101 90.0848 -13.7199 127.236 -31.9863C145.611 -41.0209 162.45 -46.5635 176.685 -47.9785C160.42 -49.7582 140.565 -46.2551 118.47 -37.6935C79.4608 -22.5772 34.4059 8.0091 -7.70885 50.9726C-49.8235 93.936 -79.8056 139.899 -94.6233 179.695ZM-99.5028 248.047C-99.6032 245.404 -99.521 242.605 -99.2551 239.653C-98.0234 225.977 -92.8651 209.352 -84.0914 190.781C-66.5534 153.659 -34.8431 109.334 7.32821 66.3127C49.4995 23.2915 92.9493 -9.05797 129.338 -26.9494C147.542 -35.8999 163.838 -41.1621 177.244 -42.4186C180.138 -42.6899 182.882 -42.7738 185.472 -42.6714C184.508 -42.4631 183.53 -42.2297 182.539 -41.9724C170.078 -38.7352 154.768 -31.5048 137.627 -21.0058C103.307 0.0148062 61.0728 34.4951 18.606 77.8177C-23.8608 121.14 -57.6599 164.226 -78.2652 199.237C-88.5569 216.724 -95.6444 232.342 -98.8176 245.055C-99.0699 246.065 -99.2986 247.063 -99.5028 248.047ZM-93.4782 246.075C-94.9262 251.875 -95.4306 256.736 -95.0983 260.695C-84.9043 231.546 -33.3265 165.312 35.5227 95.0753C104.372 24.8386 169.297 -27.7787 197.87 -38.1781C193.99 -38.5171 189.225 -38.0025 183.539 -36.5253C171.864 -33.4925 157.12 -26.5916 140.213 -16.2357C106.435 4.45354 64.5895 38.5776 22.3653 81.6528C-19.859 124.728 -53.3089 167.416 -73.5894 201.876C-83.7407 219.124 -90.5052 234.164 -93.4782 246.075ZM207.414 -31.0573C207.768 -33.2647 207.471 -34.0531 207.383 -34.2281C207.211 -34.3182 206.439 -34.6207 204.275 -34.2595C201.557 -33.8059 197.713 -32.4545 192.705 -29.9819C182.749 -25.0668 169.446 -16.3576 153.645 -4.3727C122.118 19.5418 81.484 55.8578 39.2819 98.9104C-2.92013 141.963 -38.5187 183.416 -61.9607 215.579C-73.7089 231.697 -82.246 245.269 -87.0641 255.425C-89.4878 260.535 -90.8125 264.456 -91.2571 267.228C-91.6112 269.436 -91.3147 270.224 -91.2263 270.399C-91.0548 270.489 -90.282 270.792 -88.1182 270.43C-85.4003 269.977 -81.5568 268.626 -76.5485 266.153C-66.5927 261.238 -53.2891 252.529 -37.4888 240.544C-5.96139 216.629 34.6725 180.313 76.8746 137.261C119.077 94.208 154.675 52.7552 178.117 20.5924C189.865 4.47374 198.403 -9.09803 203.221 -19.2545C205.644 -24.3637 206.969 -28.2846 207.414 -31.0573Z" fill="url(#paint1_linear_529_59234)"/>
<defs>
<linearGradient id="paint0_linear_529_59234" x1="243.638" y1="288.186" x2="46.5061" y2="114.841" gradientUnits="userSpaceOnUse">
<stop stop-color="white"/>
<stop offset="1" stop-color="white" stop-opacity="0"/>
</linearGradient>
<linearGradient id="paint1_linear_529_59234" x1="-115.264" y1="-54.701" x2="92.2967" y2="145.335" gradientUnits="userSpaceOnUse">
<stop stop-color="white"/>
<stop offset="1" stop-color="white" stop-opacity="0"/>
</linearGradient>
</defs>
</svg>
