<svg width="349" height="411" viewBox="0 0 349 411" fill="none" xmlns="http://www.w3.org/2000/svg">
<path fill-rule="evenodd" clip-rule="evenodd" d="M87.6526 428.469C174.265 516.828 317.72 513.869 410.771 418.943C503.823 324.016 506.723 177.67 420.11 89.3118C406.607 75.5361 321.237 140.292 229.431 233.947C137.625 327.603 74.149 414.694 87.6526 428.469ZM183.408 478.425C258.371 499.699 344.221 478.519 406.696 414.785C469.171 351.051 489.932 263.47 469.079 186.997C481.161 258.163 455.691 339.861 394.471 402.314C333.252 464.767 253.168 490.75 183.408 478.425ZM390.396 398.157C326.36 463.483 241.651 487.692 170.892 469.365C236.857 478.614 315.784 449.33 378.171 385.685C440.558 322.041 469.264 241.523 460.197 174.229C478.162 246.413 454.432 332.83 390.396 398.157ZM158.561 460.762C224.743 476.117 308.281 448.669 374.096 381.528C439.91 314.387 466.817 229.165 451.765 161.649C453.425 179.083 452.177 197.741 448.171 216.955C437.664 267.343 408.158 321.836 361.871 369.056C315.583 416.277 262.167 446.377 212.774 457.095C193.939 461.183 175.651 462.455 158.561 460.762ZM211.932 451.133C188.723 456.17 166.582 456.773 146.689 452.782C163.602 453.614 182.139 451.017 201.471 445.28C247.843 431.519 299.352 399.577 345.57 352.427C391.789 305.278 423.099 252.73 436.589 205.424C442.212 185.703 444.758 166.791 443.942 149.538C447.855 169.832 447.263 192.419 442.326 216.095C432.111 265.087 403.314 318.464 357.796 364.899C312.277 411.335 259.955 440.712 211.932 451.133ZM135.637 445.478C154.618 448.527 176.58 446.437 200.183 439.432C245.327 426.035 295.908 394.776 341.495 348.27C387.083 301.764 417.724 250.164 430.856 204.11C437.722 180.031 439.771 157.626 436.783 138.263C436.537 154.998 432.43 173.908 424.982 193.911C408.523 238.115 375.423 288.716 329.27 335.799C283.117 382.882 233.516 416.649 190.185 433.439C170.578 441.037 152.041 445.228 135.637 445.478ZM188.416 427.756C164.465 437.037 142.943 440.834 125.311 438.905C140.742 437.371 158.995 431.363 178.914 421.569C219.186 401.769 266.878 366.191 312.97 319.17C359.062 272.149 393.937 223.496 413.346 182.412C422.947 162.092 428.836 143.471 430.34 127.729C432.231 145.716 428.508 167.673 419.411 192.106C403.348 235.245 370.848 285.069 325.195 331.642C279.542 378.214 230.703 411.37 188.416 427.756ZM115.786 433.152C118.593 433.263 121.568 433.172 124.705 432.878C139.237 431.516 156.902 425.812 176.635 416.109C216.081 396.715 263.181 361.648 308.895 315.013C354.609 268.378 388.983 220.328 407.994 180.088C417.505 159.957 423.097 141.936 424.432 127.111C424.72 123.911 424.809 120.876 424.7 118.012C424.479 119.078 424.231 120.16 423.958 121.255C420.518 135.036 412.835 151.966 401.679 170.922C379.342 208.874 342.704 255.579 296.67 302.541C250.635 349.503 204.853 386.88 167.65 409.667C149.069 421.048 132.473 428.885 118.965 432.394C117.891 432.673 116.831 432.926 115.786 433.152ZM117.881 426.49C111.717 428.091 106.552 428.649 102.346 428.281C133.319 417.008 203.699 359.971 278.332 283.834C352.965 207.697 408.875 135.899 419.926 104.301C420.286 108.592 419.739 113.862 418.17 120.15C414.947 133.061 407.614 149.365 396.61 168.062C374.626 205.416 338.366 251.69 292.595 298.384C246.823 345.078 201.463 382.068 164.847 404.496C146.519 415.722 130.537 423.202 117.881 426.49ZM412.359 93.7477C414.705 93.3562 415.543 93.684 415.729 93.7817C415.824 93.9714 416.146 94.826 415.762 97.2189C415.28 100.224 413.844 104.475 411.217 110.013C405.994 121.023 396.74 135.735 384.004 153.207C358.593 188.072 320.004 233.007 274.257 279.677C228.509 326.346 184.462 365.713 150.286 391.636C133.158 404.628 118.737 414.069 107.945 419.397C102.516 422.077 98.3497 423.542 95.4034 424.034C93.0578 424.425 92.2202 424.097 92.0342 424C91.9384 423.81 91.617 422.955 92.0008 420.562C92.4828 417.557 93.9187 413.307 96.5461 407.768C101.769 396.758 111.023 382.047 123.758 364.574C149.17 329.709 187.759 284.774 233.506 238.105C279.253 191.435 323.301 152.069 357.477 126.145C374.604 113.153 389.026 103.713 399.818 98.3845C405.247 95.7043 409.413 94.2394 412.359 93.7477Z" fill="url(#paint0_linear_529_59235)"/>
<path fill-rule="evenodd" clip-rule="evenodd" d="M62.8902 403.21C-23.7224 314.851 -20.8224 168.505 72.2289 73.5788C165.28 -21.3477 308.735 -24.3062 395.348 64.0519C408.851 77.8277 345.375 164.918 253.569 258.574C161.764 352.23 76.3938 416.985 62.8902 403.21ZM13.9213 305.524C-6.93213 229.051 13.8289 141.47 76.3039 77.736C138.779 14.0019 224.63 -7.17755 299.592 14.0962C229.832 1.77096 149.749 27.7544 88.5291 90.2076C27.3097 152.661 1.83953 234.358 13.9213 305.524ZM92.6042 94.3648C28.5685 159.691 4.838 246.108 22.8029 318.292C13.7364 250.998 42.4422 170.481 104.829 106.836C167.217 43.1919 246.144 13.9077 312.108 23.1567C241.35 4.82977 156.64 29.0385 92.6042 94.3648ZM31.2354 330.872C16.1838 263.356 43.0901 178.134 108.904 110.994C174.719 43.8528 258.257 16.4042 324.44 31.7592C307.35 30.0661 289.061 31.3387 270.227 35.4259C220.834 46.1445 167.417 76.2448 121.13 123.465C74.8422 170.685 45.3365 225.179 34.8297 275.567C30.8232 294.781 29.5758 313.438 31.2354 330.872ZM40.6741 276.426C35.7372 300.102 35.1456 322.69 39.0584 342.983C38.242 325.73 40.7884 306.819 46.4118 287.098C59.9012 239.791 91.2116 187.244 137.43 140.094C183.648 92.9441 235.158 61.0027 281.529 47.2415C300.861 41.5047 319.399 38.9071 336.311 39.7399C316.419 35.7482 294.277 36.3517 271.069 41.3881C223.045 51.8096 170.723 81.1868 125.205 127.622C79.6866 174.058 50.8896 227.434 40.6741 276.426ZM46.2176 354.259C43.229 334.895 45.278 312.49 52.144 288.412C65.2765 242.357 95.9177 190.757 141.505 144.251C187.092 97.7451 237.673 66.4864 282.818 53.0892C306.421 46.0848 328.383 43.9945 347.364 47.0434C330.959 47.2939 312.423 51.484 292.815 59.082C249.484 75.8727 199.883 109.64 153.73 156.723C107.577 203.806 74.4774 254.407 58.0184 298.61C50.5705 318.613 46.4632 337.524 46.2176 354.259ZM63.5895 300.416C54.4919 324.849 50.7695 346.805 52.6607 364.793C54.1642 349.051 60.0538 330.429 69.6539 310.109C89.0636 269.025 123.939 220.372 170.03 173.351C216.122 126.331 263.814 90.7528 304.086 70.952C324.005 61.1584 342.259 55.1501 357.69 53.6163C340.058 51.687 318.535 55.4844 294.584 64.7653C252.298 81.1515 203.458 114.307 157.805 160.88C112.153 207.453 79.6519 257.277 63.5895 300.416ZM58.3 374.51C58.1912 371.645 58.2803 368.611 58.5685 365.411C59.9037 350.585 65.4953 332.565 75.006 312.434C94.0173 272.193 128.392 224.144 174.106 177.509C219.819 130.873 266.919 95.8064 306.365 76.412C326.098 66.7095 343.763 61.0053 358.296 59.6432C361.432 59.3492 364.407 59.2583 367.215 59.3692C366.169 59.595 365.109 59.848 364.035 60.127C350.527 63.636 333.931 71.4738 315.35 82.8549C278.148 105.641 232.365 143.018 186.331 189.98C140.296 236.942 103.658 283.648 81.3217 321.6C70.1655 340.555 62.4825 357.486 59.0428 371.266C58.7693 372.361 58.5213 373.443 58.3 374.51ZM64.8307 372.372C63.2611 378.66 62.7143 383.929 63.0745 388.22C74.1249 356.623 130.036 284.825 204.669 208.688C279.301 132.551 349.681 75.5131 380.655 64.2399C376.448 63.8725 371.283 64.4303 365.119 66.0316C352.463 69.3192 336.481 76.7999 318.154 88.0256C281.538 110.453 236.177 147.444 190.406 194.137C144.634 240.831 108.375 287.106 86.3903 324.46C75.3863 343.157 68.0534 359.461 64.8307 372.372ZM391 71.959C391.383 69.5661 391.062 68.7115 390.966 68.5218C390.78 68.4241 389.942 68.0963 387.597 68.4877C384.651 68.9794 380.484 70.4444 375.055 73.1246C364.263 78.4527 349.842 87.8935 332.714 100.885C298.538 126.809 254.491 166.176 208.744 212.845C162.996 259.514 124.407 304.449 98.9958 339.314C86.2608 356.787 77.0065 371.499 71.7837 382.508C69.1563 388.047 67.7203 392.297 67.2383 395.303C66.8546 397.695 67.176 398.55 67.2718 398.74C67.4577 398.837 68.2954 399.165 70.641 398.774C73.5872 398.282 77.7536 396.817 83.1826 394.137C93.9747 388.809 108.396 379.368 125.524 366.376C159.7 340.453 203.747 301.086 249.494 254.417C295.242 207.747 333.831 162.812 359.242 127.948C371.977 110.475 381.231 95.763 386.454 84.7533C389.082 79.2149 390.518 74.9646 391 71.959Z" fill="url(#paint1_linear_529_59235)"/>
<defs>
<linearGradient id="paint0_linear_529_59235" x1="256.311" y1="-25.2445" x2="201.816" y2="511.722" gradientUnits="userSpaceOnUse">
<stop stop-color="white"/>
<stop offset="1" stop-color="white" stop-opacity="0"/>
</linearGradient>
<linearGradient id="paint1_linear_529_59235" x1="41.2143" y1="46.329" x2="266.212" y2="263.169" gradientUnits="userSpaceOnUse">
<stop stop-color="white"/>
<stop offset="1" stop-color="white" stop-opacity="0"/>
</linearGradient>
</defs>
</svg>
